<?xml version="1.0" standalone="no"?>
<!DOCTYPE svg PUBLIC "-//W3C//DTD SVG 1.1//EN" "http://www.w3.org/Graphics/SVG/1.1/DTD/svg11.dtd" >
<svg xmlns="http://www.w3.org/2000/svg">
<metadata>Generated by IcoMoon</metadata>
<defs>
<font id="hu-icons" horiz-adv-x="512">
<font-face units-per-em="512" ascent="480" descent="-32" />
<missing-glyph horiz-adv-x="512" />
<glyph unicode="&#x20;" d="" horiz-adv-x="256" />
<glyph unicode="&#xe600;" d="M40.806 351.079c12.493-6.733 185.575-99.686 192.025-103.143 6.425-3.456 14.771-5.12 23.168-5.12 8.423 0 16.768 1.664 23.193 5.145 6.451 3.456 179.507 96.409 192 103.143 12.519 6.707 24.346 27.776 1.382 27.776h-433.127c-22.963 0-11.162-21.069 1.357-27.801zM476.493 299.879c-14.208-7.424-188.595-98.586-197.299-103.143s-14.771-5.146-23.193-5.146c-8.397 0-14.464 0.589-23.168 5.146s-183.117 95.744-197.299 103.143c-10.009 5.222-9.933-0.896-9.933-5.607s0-187.776 0-187.776c0-10.752 14.31-24.576 25.395-24.576h410.035c11.111 0 25.37 13.824 25.37 24.55 0 0 0 183.065 0 187.776 0 4.736 0.103 10.855-9.907 5.632z" />
<glyph unicode="&#xe601;" d="M256 435.2c-70.707 0-128-57.319-128-128 0-122.215 128-281.6 128-281.6s128 159.386 128 281.6c0 70.681-57.293 128-128 128zM256 236.544c-38.169 0-69.12 30.951-69.12 69.12s30.951 69.12 69.12 69.12 69.12-30.95 69.12-69.12-30.95-69.12-69.12-69.12z" />
<glyph unicode="&#xe602;" d="M503.885 357.786l-119.654 74.931c-5.299 3.328-11.93 3.328-17.229 0l-111.002-69.529-111.001 69.504c-5.299 3.328-11.929 3.328-17.229 0l-119.654-74.906c-5.018-3.149-8.115-8.858-8.115-14.976v-299.699c0-6.298 3.225-12.135 8.499-15.232s11.699-3.021 16.87 0.231l111.001 69.529 111.001-69.529c5.299-3.328 11.93-3.328 17.255 0l111.002 69.529 111.001-69.529c2.637-1.664 5.632-2.509 8.627-2.509 2.841 0 5.683 0.768 8.243 2.279 5.248 3.098 8.499 8.935 8.499 15.232v299.699c0 6.118-3.098 11.827-8.115 14.976zM119.629 127.923l-86.144-53.939v258.919l86.144 53.939v-258.918zM239.257 73.984l-86.144 53.939v258.918l86.144-53.939v-258.918zM358.887 127.923l-86.118-53.939v258.919l86.118 53.939v-258.918zM478.49 73.984l-86.118 53.939v258.918l86.118-53.939v-258.918z" />
<glyph unicode="&#xe603;" d="M384 153.6c-17.613 0-33.741-5.965-46.695-15.923l-133.607 80.154c0.64 4.096 1.101 8.295 1.101 12.57 0 4.301-0.461 8.474-1.101 12.57l133.607 80.154c12.954-9.959 29.082-15.923 46.695-15.923 42.394 0 76.8 34.381 76.8 76.8s-34.406 76.8-76.8 76.8-76.8-34.381-76.8-76.8c0-4.275 0.461-8.474 1.127-12.57l-133.607-80.179c-12.953 9.984-29.107 15.949-46.72 15.949-42.419 0-76.8-34.381-76.8-76.8 0-42.394 34.381-76.8 76.8-76.8 17.613 0 33.767 5.965 46.72 15.923l133.607-80.154c-0.666-4.096-1.127-8.269-1.127-12.57 0-42.394 34.406-76.8 76.8-76.8s76.8 34.406 76.8 76.8-34.406 76.8-76.8 76.8z" />
<glyph unicode="&#xe604;" d="M440.038 380.135c-42.803 39.296-112.205 39.296-155.008 0l-29.030-26.675-29.056 26.675c-42.803 39.296-112.179 39.296-154.982 0-48.154-44.186-48.154-115.815 0-160.026l184.038-168.909 184.039 168.909c48.154 44.211 48.154 115.84 0 160.026z" />
<glyph unicode="&#xe605;" d="M449.152 90.419l-96.743 96.743c14.592 23.987 22.989 52.096 22.989 82.227 0 87.45-75.801 163.251-163.277 163.251-87.45 0-158.362-70.912-158.362-158.361 0-87.475 75.776-163.277 163.251-163.277 29.082 0 56.32 7.885 79.744 21.581l97.255-97.28c9.549-9.523 24.96-9.523 34.457 0l24.141 24.115c9.498 9.523 6.041 21.504-3.456 31.002zM102.502 274.279c0 60.544 49.075 109.645 109.619 109.645 60.569 0 114.535-53.965 114.535-114.534s-49.075-109.645-109.645-109.645-114.509 53.965-114.509 114.535z" />
<glyph unicode="&#xe606;" d="M286.233 118.938c0 37.145 28.16 57.677 74.087 88.089 56.192 37.248 126.080 83.584 126.080 193.511 0 9.907-8.089 17.92-18.099 17.92h-87.834c-12.416 22.938-49.357 47.462-124.467 47.462-75.085 0-112.051-24.525-124.442-47.462h-87.834c-10.010 0-18.125-8.013-18.125-17.92 0-109.927 69.913-156.262 126.105-193.485 45.952-30.413 74.112-50.944 74.112-88.089v-33.562c-48.256-5.376-83.712-23.219-83.712-44.442 0-25.447 50.995-46.080 113.894-46.080 62.925 0 113.92 20.634 113.92 46.080 0 21.223-35.456 39.065-83.712 44.442v33.536zM357.299 248.32c14.541 30.72 26.035 72.371 27.878 134.298h64.231c-6.118-69.094-47.667-104.013-92.109-134.298zM256 434.534c69.939 0.026 97.28-28.569 97.255-39.168 0-10.675-27.264-39.245-97.255-39.296-69.939 0.077-97.229 28.621-97.229 39.296-0.025 10.599 27.29 39.219 97.229 39.168zM62.617 382.618h64.205c1.869-61.926 13.363-103.578 27.879-134.298-44.441 30.285-85.965 65.203-92.083 134.298z" />
<glyph unicode="&#xe607;" d="M256 281.6c-42.394 0-76.8-34.407-76.8-76.8 0-42.419 34.406-76.8 76.8-76.8 42.419 0 76.8 34.381 76.8 76.8 0 42.394-34.381 76.8-76.8 76.8zM460.8 358.4h-61.414c-8.448 0-17.562 6.553-20.224 14.567l-15.872 47.642c-2.714 8.038-11.801 14.592-20.25 14.592h-174.080c-8.448 0-17.561-6.553-20.198-14.567l-15.923-47.667c-2.662-8.013-11.751-14.567-20.198-14.567h-61.44c-28.16 0-51.2-23.040-51.2-51.2v-230.4c0-28.16 23.040-51.2 51.2-51.2h409.6c28.185 0 51.2 23.040 51.2 51.2v230.4c0 28.16-23.014 51.2-51.2 51.2zM256 76.8c-70.707 0-128 57.293-128 128 0 70.682 57.293 128 128 128 70.682 0 128-57.318 128-128 0-70.707-57.318-128-128-128zM442.88 271.411c-9.882 0-17.894 8.013-17.894 17.92s8.013 17.92 17.894 17.92c9.907 0 17.92-8.013 17.92-17.92s-8.013-17.92-17.92-17.92z" />
<glyph unicode="&#xe608;" d="M84.531 173.107c11.879-48.154 26.983-69.145 77.363-91.187 50.406-22.016 74.343-46.080 94.106-46.080s42.163 21.043 92.57 43.111c50.406 21.99 36.966 28.749 48.845 76.851l-141.415-68.762-171.469 86.067zM499.481 298.599l-213.12 119.347c-16.691 9.344-44.007 9.344-60.697 0l-213.145-119.347c-16.691-9.344-16.691-24.653 0-33.997l213.12-119.347c16.691-9.344 44.006-9.344 60.698 0l137.779 77.159-149.401 34.995c-5.735-1.433-12.058-2.227-18.714-2.227-26.905 0-48.717 12.979-48.717 28.979s21.811 29.005 48.717 29.005c20.889 0 38.682-7.859 45.594-18.841l158.233-51.917 39.654 22.195c16.691 9.344 16.691 24.653 0 33.997zM434.355 72.397c-1.613-9.805 32.845-26.010 36.121 2.791 14.822 129.817-10.649 167.194-10.649 167.194l-35.712-19.994c0 0.026 30.285-28.8 10.24-149.99z" />
<glyph unicode="&#xe609;" d="M136.96-22.528h51.2l114.893 204.826h132.147c0 0 76.8 0 76.8 35.815 0 35.84-76.8 35.84-76.8 35.84h-132.147l-114.893 204.8h-51.2l63.693-204.8h-91.827l-57.626 51.225h-51.2l40.986-87.040-40.986-87.065h51.2l57.626 51.226h91.827l-63.693-204.826z" />
<glyph unicode="&#xe60a;" d="M252.851 465.894c-130.048-1.741-234.087-108.57-232.345-238.643 1.741-130.099 108.595-234.087 238.643-232.371 130.073 1.741 234.112 108.595 232.346 238.643-1.741 130.099-108.595 234.112-238.643 232.371zM253.286 435.2c35.072 0.487 68.199-7.936 97.28-23.065l-31.693-52.839c-18.995 9.242-40.32 14.464-62.873 14.464-22.528 0-43.853-5.222-62.848-14.49l-31.667 52.813c27.494 14.336 58.675 22.656 91.802 23.117zM127.129 167.552l-52.787-31.642c-14.336 27.469-22.656 58.649-23.091 91.751-0.486 35.097 7.936 68.224 23.066 97.28l52.813-31.719c-9.267-18.97-14.49-40.269-14.49-62.823 0-22.528 5.222-43.853 14.489-62.848zM258.739 25.625c-35.072-0.486-68.224 7.936-97.28 23.065l31.693 52.839c18.995-9.267 40.32-14.49 62.848-14.49 22.553 0 43.879 5.197 62.848 14.464l31.667-52.787c-27.495-14.31-58.649-22.63-91.776-23.091zM256 117.785c-62.208 0-112.615 50.432-112.615 112.615 0 62.208 50.432 112.64 112.615 112.64 62.233 0 112.64-50.432 112.64-112.64s-50.406-112.615-112.64-112.615zM384.87 167.552c9.267 18.995 14.49 40.32 14.49 62.848 0 22.553-5.223 43.853-14.49 62.848l52.787 31.693c14.336-27.495 22.681-58.649 23.117-91.776 0.461-35.098-7.962-68.224-23.091-97.28l-52.813 31.667z" />
<glyph unicode="&#xe60b;" d="M435.2 409.6h-23.040v-51.2h-81.92v51.2h-148.48v-51.2h-81.92v51.2h-23.040c-28.16 0-51.2-23.040-51.2-51.2v-307.2c0-28.16 23.040-51.2 51.2-51.2h358.4c28.16 0 51.2 23.040 51.2 51.2v307.2c0 28.16-23.040 51.2-51.2 51.2zM435.2 51.2h-358.4v204.8h358.4v-204.8zM158.72 460.8h-35.84v-87.040h35.84v87.040zM389.12 460.8h-35.84v-87.040h35.84v87.040z" />
<glyph unicode="&#xe60c;" d="M290.074 450.56v0c-125.645 0-204.749-43.29-199.45-78.080 1.536-9.933 5.76-36.992 11.111-71.040-61.568-23.911-81.971-62.643-79.232-94.259 3.226-37.401 36.889-77.44 110.797-84.377 42.189-3.917 92.954 19.2 125.875 58.752-3.149 5.325-4.941 11.469-4.941 18.099 0 19.789 16.025 35.84 35.814 35.84s35.84-16.051 35.84-35.84c0-19.507-15.616-35.353-35.021-35.789-39.168-50.509-98.791-80.973-155.264-77.414 1.305-8.32 1.817-11.469 2.458-15.693 2.329-14.797 60.083-60.416 151.987-60.493h0.026c91.904 0.077 149.683 45.696 151.987 60.493 2.279 14.72 42.035 266.394 47.411 301.721 5.325 34.765-73.805 78.080-199.399 78.080zM58.215 210.304c-1.408 16.435 11.648 38.323 49.229 54.759 5.401-34.329 11.29-71.603 16.461-104.32-41.063 8.064-63.949 29.466-65.689 49.562zM290.048 319.385c-91.904 0.051-157.107 34.176-157.107 46.899-0.051 12.672 65.203 46.848 157.107 46.797 91.904 0.051 157.184-34.125 157.133-46.797 0-12.723-65.203-46.848-157.133-46.899z" />
<glyph unicode="&#xe60d;" d="M313.933 164.659c0 0 180.711 130.381 160.666 279.629-0.461 3.277-1.536 5.427-2.867 6.887-1.408 1.357-3.507 2.483-6.733 2.944-145.843 20.454-273.255-164.454-273.255-164.454-110.541 13.261-102.502-8.806-152.935-129.92-9.651-23.091 5.99-31.053 23.142-24.55 17.152 6.451 55.014 20.762 55.014 20.762l66.278-67.815c0 0-13.977-38.733-20.301-56.269-6.323-17.587 1.434-33.587 24.013-23.731 118.374 51.635 139.929 43.418 126.976 156.518zM339.738 316.109c-15.309 15.667-15.309 41.063 0 56.729 15.309 15.642 40.115 15.642 55.424 0 15.334-15.642 15.334-41.063 0-56.729-15.283-15.693-40.115-15.693-55.424 0z" />
<glyph unicode="&#xe60e;" d="M460.8 384h-25.6v-384h25.6c28.16 0 51.2 23.040 51.2 51.2v281.6c0 28.16-23.040 51.2-51.2 51.2zM0 332.8v-281.6c0-28.16 23.040-51.2 51.2-51.2h25.6v384h-25.6c-28.16 0-51.2-23.040-51.2-51.2zM343.040 437.581c-17.433 8.115-45.261 23.219-87.040 23.219s-69.606-15.104-87.040-23.219v-53.581h-56.32v-384h286.72v384h-56.32v53.581zM312.32 384h-112.64v34.176c13.645 5.888 33.229 11.904 56.32 11.904s42.649-5.99 56.32-11.878v-34.202z" />
<glyph unicode="&#xe60f;" d="M183.936-4.352c20.198-13.056 43.597-21.888 72.064-21.197 28.467-0.691 51.84 8.141 72.038 21.197v52.992h-144.102v-52.992zM325.017 79.385c0 111.514 118.553 147.2 109.671 258.279-5.581 70.093-53.069 148.736-178.688 148.736s-173.107-78.643-178.688-148.736c-8.883-111.104 109.645-146.765 109.645-258.279h138.061zM131.533 333.619c5.325 66.534 50.585 100.275 124.467 100.275s119.142-33.741 124.442-100.275c2.893-36.429-18.048-60.723-46.336-100.506-20.813-29.338-45.44-63.975-56.96-109.082h-42.317c-11.52 45.107-36.121 79.719-56.986 109.082-28.262 39.808-49.203 64.077-46.31 100.506z" />
<glyph unicode="&#xe610;" d="M102.4 51.2c0-28.262 22.938-51.2 51.2-51.2 28.288 0 51.2 22.938 51.2 51.2s-22.912 51.2-51.2 51.2c-28.263 0-51.2-22.938-51.2-51.2zM358.4 51.2c0-28.262 22.938-51.2 51.2-51.2 28.288 0 51.2 22.938 51.2 51.2s-22.912 51.2-51.2 51.2c-28.262 0-51.2-22.938-51.2-51.2zM193.203 172.237l283.366 80.947c5.401 1.561 9.831 7.424 9.831 13.056v140.8h-360.96v43.52c0 5.632-4.582 10.24-10.24 10.24h-79.36c-5.632 0-10.24-4.608-10.24-10.24v-40.96h49.741l50.381-231.859 4.864-24.141v-38.4c0-5.632 4.608-10.24 10.214-10.24h335.386c5.606 0 10.214 4.608 10.214 10.24v38.4h-287.949c-29.415 0-30.029 11.52-5.248 18.637z" />
<glyph unicode="&#xe611;" d="M125.594 190.925l90.931-90.931 166.835 166.835-90.957 90.931-166.81-166.835zM489.088 315.802l-38.707 38.681c-7.399-3.993-15.795-6.298-24.806-6.298-28.595 0-51.789 23.194-51.789 51.815 0 8.986 2.253 17.433 6.298 24.806l-38.707 38.682c-10.112 10.087-26.547 10.087-36.659 0l-281.805-281.83c-10.086-10.087-10.086-26.573 0-36.659l38.707-38.707c7.373 4.019 15.821 6.298 24.781 6.298 28.621 0 51.815-23.168 51.815-51.789 0-8.986-2.279-17.433-6.323-24.807l38.681-38.707c10.087-10.087 26.573-10.087 36.659 0l281.856 281.856c10.061 10.087 10.061 26.573 0 36.659zM216.525 58.393l-132.506 132.531 208.435 208.41 132.506-132.506-208.435-208.435z" />
<glyph unicode="&#xe612;" d="M404.505 281.549h-46.106v35.84c0 74.163-34.151 117.76-102.4 117.76-68.224 0-102.4-43.597-102.4-117.76v-35.84h-51.2c-14.131 0-25.6-16.563-25.6-30.72v-199.68c0-14.080 10.983-29.159 24.371-33.459l30.617-9.907c13.389-4.327 35.865-7.859 49.971-7.859h148.48c14.080 0 36.582 3.533 49.971 7.859l30.618 9.907c13.414 4.301 24.371 19.379 24.371 33.459v199.68c0 14.157-16.563 30.72-30.695 30.72zM204.8 327.629c0 36.992 20.429 56.32 51.2 56.32 30.797 0 51.2-19.328 51.2-56.32v-46.080h-102.4v46.080z" />
<glyph unicode="&#xe613;" d="M256 445.44c-118.784 0-215.040-96.307-215.040-215.040 0-118.784 96.281-215.040 215.040-215.040s215.040 96.281 215.040 215.040c0 118.758-96.281 215.040-215.040 215.040zM300.262 230.4l78.362-78.362-44.262-44.262-78.362 78.362-78.362-78.361-44.237 44.262 78.336 78.362-78.336 78.336 44.237 44.262 78.362-78.336 78.361 78.336 44.262-44.237-78.362-78.362z" />
<glyph unicode="&#xe614;" d="M360.704 429.209c-29.209 21.069-65.843 31.591-109.978 31.591-33.587 0-61.901-7.424-84.915-22.221-36.531-23.194-55.936-62.566-58.291-118.118h84.633c0 16.179 4.71 31.769 14.157 46.771s25.472 22.502 48.077 22.502c22.963 0 38.81-6.093 47.462-18.253 8.678-12.211 13.005-25.702 13.005-40.499 0-12.877-6.451-24.653-14.233-35.379-4.275-6.247-9.933-11.981-16.921-17.255 0 0-45.901-29.44-66.073-53.095-11.699-13.722-12.749-34.253-13.773-63.719-0.077-2.099 0.717-6.425 8.064-6.425s59.315 0 65.843 0 7.885 4.839 7.987 6.963c0.461 10.726 1.664 16.205 3.635 22.4 3.712 11.699 13.747 21.913 25.063 30.695l23.296 16.077c21.017 16.384 37.811 29.824 45.209 40.371 12.647 17.357 21.529 38.707 21.529 64.025 0 41.344-14.618 72.525-43.776 93.568zM249.369 104.345c-29.184 0.87-53.248-19.303-54.169-50.944-0.922-31.616 21.965-52.505 51.149-53.376 30.464-0.896 53.888 18.637 54.81 50.253 0.896 31.642-21.325 53.171-51.789 54.067z" />
<glyph unicode="&#xe615;" d="M199.68 172.262l-102.4 40.986v-34.663l102.4-40.986v34.663zM199.68 278.63l-102.4 40.96v-34.663l102.4-40.96v34.662zM475.161 456.397c-7.014 4.762-15.974 5.735-23.859 2.586l-195.303-78.131-195.303 78.131c-7.885 3.149-16.819 2.176-23.859-2.586-7.014-4.762-11.239-12.697-11.239-21.197v-327.68c0-10.471 6.375-19.865 16.077-23.783l204.365-81.741c0 0 4.198-1.357 4.966-1.51 1.664-0.307 3.328-0.486 4.992-0.486 1.639 0 3.328 0.179 4.966 0.512 0.768 0.154 4.966 1.536 4.966 1.536l204.339 81.715c9.753 3.891 16.128 13.286 16.128 23.757v327.68c0 8.499-4.224 16.435-11.238 21.197zM230.4 52.377l-163.84 65.536v286.925l163.84-65.562v-286.899zM445.44 117.888l-163.84-65.536v286.925l163.84 65.561v-286.95zM414.72 213.248l-102.425-40.986v-34.663l102.425 40.986v34.663zM414.72 319.591l-102.425-40.96v-34.662l102.425 40.96v34.663z" />
<glyph unicode="&#xe616;" d="M256 409.6c-98.969 0-179.2-80.231-179.2-179.2s80.231-179.2 179.2-179.2c98.944 0 179.2 80.231 179.2 179.2s-80.256 179.2-179.2 179.2z" />
<glyph unicode="&#xe617;" d="M358.375 348.16l0.026-235.52-204.8 117.76z" />
<glyph unicode="&#xe618;" d="M373.76 332.774l-235.52 0.026 117.76-204.8z" />
<glyph unicode="&#xe619;" d="M138.24 128h235.52l-117.786 204.8z" />
<glyph unicode="&#xe61a;" d="M153.625 348.16l-0.025-235.52 204.8 117.76z" />
<glyph unicode="&#xe61b;" d="M292.787 370.791c-10.701-10.445-115.251-120.218-115.251-120.218-5.709-5.581-8.55-12.877-8.55-20.173s2.841-14.592 8.55-20.173c0 0 104.551-109.773 115.251-120.192 10.701-10.445 29.952-11.161 41.37 0 11.392 11.136 12.288 26.675-0.026 40.32l-95.923 100.045 95.923 100.045c12.313 13.67 11.418 29.209 0.026 40.345-11.443 11.136-30.695 10.445-41.37 0z" />
<glyph unicode="&#xe61c;" d="M396.365 267.187c-10.419-10.701-120.192-115.277-120.192-115.277-5.581-5.709-12.877-8.55-20.173-8.55-7.322 0-14.618 2.841-20.173 8.55 0 0-109.773 104.576-120.218 115.277-10.419 10.701-11.136 29.926 0 41.37 11.162 11.417 26.701 12.313 40.345 0l100.045-95.949 100.019 95.923c13.671 12.314 29.235 11.418 40.346 0 11.161-11.417 10.471-30.669 0-41.344z" />
<glyph unicode="&#xe61d;" d="M396.365 193.613c-10.419 10.701-120.192 115.251-120.192 115.251-5.581 5.709-12.877 8.576-20.173 8.576-7.322 0-14.618-2.867-20.173-8.576 0 0-109.773-104.551-120.218-115.251-10.419-10.701-11.136-29.952 0-41.37 11.162-11.392 26.701-12.313 40.345 0l100.045 95.923 100.019-95.923c13.671-12.313 29.235-11.392 40.346 0 11.161 11.443 10.471 30.695 0 41.37z" />
<glyph unicode="&#xe61e;" d="M219.213 370.791c10.701-10.445 115.251-120.218 115.251-120.218 5.735-5.581 8.576-12.877 8.576-20.173s-2.841-14.592-8.576-20.173c0 0-104.55-109.773-115.251-120.192-10.701-10.445-29.927-11.161-41.369 0-11.417 11.136-12.314 26.675 0 40.32l95.949 100.045-95.923 100.045c-12.314 13.67-11.417 29.209 0 40.345s30.669 10.445 41.344 0z" />
<glyph unicode="&#xe61f;" d="M452.864 365.414c-12.851 76.237-82.432 127.155-155.367 113.69-72.96-13.44-134.502-72.089-121.651-148.326 2.791-16.41 10.445-42.112 19.533-60.544l-132.48-197.709c-4.889-7.296-7.654-20.454-6.195-29.209l8.525-50.457c1.485-8.755 9.549-14.643 17.92-13.107l38.809 7.142c8.397 1.562 19.021 8.935 23.654 16.409l52.864 85.274 35.456 6.553 61.159 99.277c20.122-3.558 48.947-2.355 65.997 0.793 72.986 13.466 104.653 93.978 91.776 170.215zM388.25 326.349c-20.070-29.927-40.525-8.832-69.197 12.16-28.647 20.966-54.656 33.869-34.586 63.795 20.070 29.952 59.546 37.248 88.217 16.256 28.672-20.966 35.635-62.285 15.565-92.211z" />
<glyph unicode="&#xe620;" d="M256 128c-28.006 0-50.662-22.938-50.662-51.2s22.656-51.2 50.662-51.2c27.981 0 50.663 22.938 50.663 51.2s-22.682 51.2-50.663 51.2zM148.48 185.395l35.84-36.199c39.577 39.987 103.757 39.987 143.36 0l35.84 36.199c-59.392 60.007-155.673 60.007-215.040 0zM76.8 257.817l35.814-36.199c79.181 79.975 207.539 79.975 286.72 0l35.865 36.199c-98.969 99.968-259.43 99.968-358.4 0zM5.12 330.215l35.84-36.199c118.784 119.962 311.322 119.962 430.080 0l35.84 36.199c-138.547 139.981-363.213 139.981-501.76 0z" />
<glyph unicode="&#xe621;" d="M512 174.080c-10.24 25.6-46.080 112.64-46.080 112.64s0 5.12-10.24 5.12c-46.080 10.24-332.8 81.92-399.36 92.16-10.24 0-15.36-5.12-15.36-5.12 0-15.36-30.72-174.080-40.96-215.040 0-5.12 0-15.36 5.12-15.36 66.56-15.36 358.4-61.44 404.48-71.68 10.24-5.12 15.36 0 15.36 0s61.44 66.56 81.92 87.040c5.12 0 5.12 5.12 5.12 10.24zM445.44 163.84c-10.24 0-15.36 10.24-15.36 25.6 0 10.24 10.24 15.36 25.6 15.36 5.12-5.12 15.36-15.36 10.24-25.6 0-10.24-10.24-20.48-20.48-15.36z" />
<glyph unicode="&#xe622;" d="M404.48 394.24l-35.84-30.72 87.040-87.040c5.12-10.24 15.36-10.24 20.48-10.24s15.36 5.12 20.48 10.24l15.36 15.36-107.52 102.4zM389.12 189.44l-30.72 30.72c-5.12 0-5.12 5.12-10.24 5.12s-5.12 0-10.24-5.12-5.12-15.36 0-20.48l15.36-15.36 10.24-5.12 15.36-15.36c5.12-5.12 5.12-5.12 10.24-5.12s5.12 0 10.24 5.12 5.12 15.36 0 20.48l-10.24 5.12zM353.28 158.72l-10.24 10.24-15.36 20.48c-5.12 0-10.24 0-10.24 0s-10.24 0-10.24 0c-5.12-5.12-5.12-15.36 0-20.48l25.6-25.6 10.24-15.36c0 0 5.12-5.12 10.24-5.12s10.24 5.12 10.24 5.12 5.12 15.36 0 20.48l-10.24 10.24zM332.8 117.76l-15.36 15.36-10.24 5.12-15.36 15.36c-5.12 0-5.12 5.12-10.24 5.12s-5.12 0-10.24-5.12c0 0 0-5.12 0-10.24s0-5.12 5.12-10.24v0l35.84-35.84c5.12-5.12 5.12-5.12 10.24-5.12s5.12 0 10.24 5.12c0 0 5.12 5.12 5.12 10.24s-5.12 5.12-5.12 10.24c0 0 0 0 0 0zM291.84 92.16l-30.72 30.72c-5.12 0-5.12 5.12-10.24 5.12s-5.12 0-10.24-5.12-5.12-15.36 0-20.48l20.48-20.48 10.24-5.12 10.24-10.24c5.12 0 5.12-5.12 10.24-5.12s5.12 0 10.24 5.12 5.12 10.24 0 15.36l-10.24 10.24zM343.040 327.68c-10.24 0-20.48 5.12-30.72 10.24-5.12 5.12-10.24 10.24-15.36 10.24s-15.36-5.12-15.36-5.12l-10.24-10.24 66.56-66.56c0 0 5.12-5.12 5.12-5.12s0-5.12-5.12-5.12l-20.48-25.6c-5.12-5.12-20.48-10.24-30.72-10.24s-20.48 5.12-30.72 10.24l-25.6 30.72c-5.12 5.12-10.24 5.12-15.36 5.12s-10.24 0-10.24-5.12l-71.68-61.44-10.24-15.36c-5.12-5.12-5.12-15.36 0-20.48 5.12 0 5.12-5.12 10.24-5.12s5.12 0 10.24 5.12 10.24 5.12 15.36 0c0 0 5.12-5.12 5.12-5.12s0-5.12-5.12-5.12c-10.24-5.12-10.24-15.36-5.12-20.48s5.12-5.12 10.24-5.12 5.12 0 10.24 5.12 10.24 5.12 15.36 0c0 0 5.12-5.12 5.12-5.12s0-5.12-5.12-5.12-5.12-10.24-5.12-15.36c0-5.12 0-5.12 5.12-10.24s5.12-5.12 10.24-5.12 5.12 0 10.24 5.12 10.24 5.12 15.36 0c0 0 5.12-5.12 5.12-5.12s0-5.12-5.12-5.12-5.12-15.36 0-20.48c5.12 0 5.12-5.12 10.24-5.12s5.12 0 10.24 5.12v10.24l-15.36 15.36c-10.24 10.24-10.24 30.72 0 46.080 5.12 5.12 15.36 10.24 20.48 10.24 0 0 0 0 0 0s0 0 0 0c0 10.24 5.12 15.36 10.24 20.48s15.36 10.24 20.48 10.24c0 0 0 0 0 0 0 10.24 5.12 15.36 10.24 20.48s15.36 10.24 25.6 10.24c0 0 0 0 0 0 0 10.24 5.12 15.36 10.24 20.48s15.36 10.24 20.48 10.24 15.36 0 20.48-10.24l15.36-15.36 51.2 51.2-66.56 71.68c-5.12-10.24-15.36-10.24-25.6-10.24zM184.32 276.48c0 0 5.12 0 0 0 10.24 5.12 20.48 10.24 25.6 10.24 0 0 0 0 5.12 0s5.12 0 10.24 0c5.12-5.12 10.24-5.12 15.36-10.24l30.72-30.72c5.12-5.12 10.24-5.12 15.36-5.12s15.36 0 15.36 5.12l15.36 15.36-61.44 56.32-5.12 10.24-15.36 15.36c-5.12 5.12-10.24 5.12-20.48 5.12-5.12 0-10.24 0-15.36-5.12-10.24-10.24-20.48-15.36-30.72-15.36s-20.48 5.12-25.6 10.24l-66.56-66.56 56.32-56.32 51.2 61.44zM133.12 358.4l5.12 5.12-30.72 35.84-107.52-107.52 15.36-15.36c5.12-5.12 10.24-10.24 20.48-10.24 5.12 0 15.36 5.12 20.48 10.24l76.8 81.92z" />
<glyph unicode="&#xe623;" d="M496.64 128c-25.6 15.36-51.2 25.6-71.68 51.2v20.48c30.72-5.12 87.040 15.36 87.040 15.36-20.48 20.48-25.6 46.080-35.84 138.24-15.36 92.16-92.16 92.16-102.4 92.16-5.12 0-87.040 0-97.28-92.16s-15.36-117.76-35.84-138.24c0 0 56.32-20.48 87.040-15.36v-20.48c-15.36-15.36-30.72-30.72-51.2-40.96 5.12-5.12 10.24-5.12 15.36-10.24 40.96-20.48 76.8-40.96 76.8-81.92v-30.72c51.2 25.6 97.28 66.56 128 112.64zM199.68 174.080v15.36c15.36 15.36 25.6 35.84 35.84 61.44 0 5.12 0 5.12 5.12 10.24 10.24 5.12 15.36 15.36 15.36 25.6 0 5.12 0 10.24 0 10.24 0 5.12-5.12 10.24-5.12 15.36 0 10.24 0 25.6 0 40.96 0 10.24 0 20.48 0 30.72 0 5.12 0 5.12 0 10.24-20.48 66.56-81.92 76.8-102.4 76.8 0 0-15.36 0-15.36 0-20.48 0-81.92-5.12-92.16-71.68 0-5.12 0-5.12 0-10.24 0-10.24 0-20.48 0-30.72 0-15.36 0-25.6 0-40.96-15.36-5.12-15.36-10.24-15.36-15.36s0-10.24 0-10.24c0-15.36 10.24-25.6 15.36-25.6 0-5.12 5.12-15.36 5.12-20.48 5.12-20.48 15.36-35.84 30.72-51.2v-15.36c-20.48-30.72-51.2-46.080-76.8-61.44 56.32-76.8 143.36-128 245.76-128 35.84 0 71.68 5.12 107.52 20.48v40.96c-5.12 51.2-97.28 61.44-153.6 122.88z" />
<glyph unicode="&#xe624;" d="M368.64 189.44c35.84 30.72 56.32 76.8 56.32 128 0 92.16-76.8 168.96-168.96 168.96s-168.96-76.8-168.96-168.96c0-51.2 20.48-97.28 56.32-128l-61.44-163.84 87.040 30.72 46.080-81.92 40.96 107.52 40.96-107.52 46.080 76.8 87.040-25.6-61.44 163.84zM256 168.96c-81.92 0-148.48 66.56-148.48 148.48s66.56 148.48 148.48 148.48c81.92 0 148.48-66.56 148.48-148.48s-66.56-148.48-148.48-148.48zM256 450.56c-76.8 0-133.12-61.44-133.12-133.12 0-76.8 61.44-133.12 133.12-133.12 76.8 0 133.12 61.44 133.12 133.12 0 76.8-56.32 133.12-133.12 133.12zM230.4 245.76l-25.6 15.36-25.6-15.36 5.12 30.72-20.48 20.48 30.72 5.12 10.24 25.6 15.36-25.6 30.72-5.12-25.6-20.48 5.12-30.72zM256 348.16l-25.6-10.24 5.12 30.72-20.48 20.48 30.72 5.12 10.24 25.6 15.36-25.6 25.6-10.24-20.48-20.48 5.12-30.72-25.6 15.36zM332.8 245.76l-25.6 15.36-25.6-15.36 5.12 30.72-20.48 20.48 30.72 5.12 10.24 25.6 15.36-25.6 30.72-5.12-25.6-20.48 5.12-30.72z" />
<glyph unicode="&#xe625;" d="M512 276.48c-5.12 15.36-35.84 15.36-51.2 10.24-51.2-15.36-102.4-30.72-148.48-51.2l-174.080 71.68-20.48-20.48 71.68-87.040c-46.080-15.36-133.12-46.080-153.6-51.2-5.12-5.12 92.16-20.48 117.76-15.36 0 0 179.2 56.32 261.12 87.040 20.48 0 40.96 10.24 61.44 15.36 10.24 5.12 40.96 25.6 35.84 40.96zM15.36 209.92l-15.36-15.36 35.84-40.96 56.32 20.48z" />
<glyph unicode="&#xe626;" d="M355.251 486.4h-198.502c-28.749 0-52.249-23.501-52.249-52.249v-407.501c0-28.723 23.501-52.25 52.249-52.25h198.502c28.749 0 52.25 23.526 52.25 52.25v407.501c0 28.749-23.501 52.25-52.25 52.25zM256-4.711c-20.173 0-36.557 11.699-36.557 26.137s16.384 26.137 36.557 26.137c20.199 0 36.557-11.699 36.557-26.137s-16.358-26.137-36.557-26.137zM365.696 73.677h-219.417v344.807h219.417v-344.807z" />
<glyph unicode="&#xe627;" d="M252.723 476.135c-135.731-1.817-244.275-113.305-242.458-249.011 1.817-135.731 113.305-244.275 249.037-242.483 135.706 1.843 244.275 113.305 242.457 249.037-1.869 135.731-113.357 244.275-249.037 242.457zM258.586 36.403c-107.136-1.459-195.149 84.25-196.608 191.411-1.408 107.136 84.275 195.149 191.437 196.583 107.136 1.433 195.149-84.249 196.583-191.411s-84.25-195.123-191.411-196.583zM139.597 115.097c0 0 116.966 16.051 166.861 65.945s65.945 166.861 65.945 166.861-116.941-16.077-166.835-65.946c-49.894-49.92-65.971-166.861-65.971-166.861zM230.784 256.717c20.966 20.992 61.056 35.865 95.462 45.107-9.241-34.329-24.192-74.727-45.031-95.539-13.926-13.926-36.505-13.926-50.432 0-13.952 13.926-13.952 36.506 0 50.432z" />
<glyph unicode="&#xe628;" d="M484.096 336.87c-25.753-147.763-169.6-272.896-212.864-301.466-43.29-28.57-82.739 11.443-97.075 41.728-16.384 34.483-65.51 221.619-78.387 237.082-12.851 15.539-51.456-15.463-51.456-15.463l-18.713 24.986c0 0 78.387 95.36 138.035 107.264 63.232 12.621 63.13-98.919 78.336-160.845 14.72-59.93 24.601-94.234 37.427-94.234 12.877 0 37.427 33.433 64.333 84.659 26.957 51.277-1.152 96.538-53.811 64.359 21.043 128.717 219.93 159.667 194.176 11.929z" />
<glyph unicode="&#xe629;" d="M491.52 376.499c-17.357-7.706-35.968-12.877-55.526-15.232 19.968 11.955 35.303 30.899 42.496 53.453-18.663-11.059-39.347-19.123-61.337-23.45-17.639 18.791-42.752 30.515-70.553 30.515-53.376 0-96.64-43.264-96.64-96.614 0-7.577 0.845-14.951 2.509-22.016-80.307 4.019-151.526 42.496-199.168 100.966-8.346-14.259-13.133-30.873-13.133-48.589 0-33.536 17.075-63.104 43.008-80.435-15.847 0.512-30.745 4.839-43.776 12.083 0-0.41 0-0.793 0-1.203 0-46.822 33.331-85.863 77.517-94.771-8.090-2.202-16.64-3.379-25.472-3.379-6.221 0-12.263 0.589-18.176 1.715 12.288-38.4 48-66.329 90.265-67.098-33.075-25.933-74.727-41.37-120.013-41.37-7.808 0-15.488 0.461-23.040 1.357 42.752-27.418 93.542-43.418 148.147-43.418 177.741 0 274.944 147.251 274.944 274.969 0 4.173-0.077 8.346-0.281 12.493 18.893 13.619 35.251 30.643 48.231 50.022z" />
<glyph unicode="&#xe62a;" d="M384 380.697h-73.113c-8.653 0-18.304-11.366-18.304-26.598v-52.787h91.418v-75.264h-91.418v-226.048h-86.323v226.023h-78.259v75.29h78.259v44.288c0 63.514 44.083 115.2 104.601 115.2h73.139v-80.103z" />
<glyph unicode="&#xe62b;" d="M50.944 343.322c0-38.221 12.775-65.843 37.939-82.048 20.608-13.286 44.544-15.283 56.986-15.283 3.021 0 5.427 0.128 7.117 0.231 0 0-3.942-25.677 15.104-51.097l-0.87 0.026c-32.999 0-140.647-6.912-140.647-95.411 0-90.035 98.867-94.592 118.681-94.592 1.561 0 2.458 0.026 2.458 0.026 0.231 0 1.638-0.051 4.045-0.051 12.723 0 45.619 1.587 76.186 16.461 39.629 19.226 59.75 52.711 59.75 99.456 0 45.184-30.618 72.064-52.992 91.725-13.645 11.981-25.446 22.323-25.446 32.384 0 10.24 8.601 17.946 19.507 27.699 17.613 15.769 34.253 38.221 34.253 80.665 0 37.325-4.839 62.362-34.662 78.234 3.123 1.587 14.106 2.739 19.559 3.507 16.154 2.202 39.782 4.711 39.782 17.895v2.534h-117.709c-1.178-0.026-119.040-4.403-119.040-112.358zM240.973 112.589c2.253-35.993-28.544-62.567-74.778-65.92-46.951-3.456-85.632 17.69-87.885 53.683-1.075 17.28 6.502 34.202 21.376 47.693 15.104 13.645 35.789 22.067 58.342 23.757 2.662 0.154 5.299 0.281 7.936 0.281 43.443 0 72.883-25.549 75.008-59.495zM210.227 367.975c11.546-40.627-5.888-83.098-33.664-90.931-3.2-0.896-6.502-1.357-9.831-1.357-25.472 0-50.688 25.754-60.032 61.235-5.222 19.942-4.813 37.35 1.177 54.118 5.888 16.461 16.461 27.623 29.773 31.36 3.2 0.922 6.528 1.357 9.856 1.357 30.72 0 50.483-12.749 62.72-55.782zM408.601 279.501v76.8h-48.64v-76.8h-76.8v-48.64h76.8v-76.8h48.64v76.8h76.8v48.64h-76.8z" />
<glyph unicode="&#xe62c;" d="M389.12 230.4c0-73.523-59.623-133.12-133.12-133.12-73.523 0-133.12 59.597-133.12 133.12 0 8.755 0.871 17.305 2.509 25.6h-89.549v-176.947c0-37.99 30.771-68.813 68.813-68.813h302.694c37.99 0 68.813 30.797 68.813 68.813v176.947h-89.523c1.613-8.294 2.483-16.845 2.483-25.6zM407.347 450.56h-302.695c-38.016 0-68.813-30.822-68.813-68.813v-74.547h111.462c24.089 34.048 63.795 56.32 108.697 56.32s84.608-22.272 108.697-56.32h111.463v74.547c0 37.99-30.822 68.813-68.813 68.813zM441.011 365.568c0-6.784-5.529-12.288-12.288-12.288h-36.839c-6.759 0-12.288 5.529-12.288 12.288v36.864c0 6.784 5.555 12.288 12.288 12.288h36.839c6.784 0 12.288-5.529 12.288-12.288v-36.864zM337.92 230.4c0 45.261-36.685 81.92-81.92 81.92s-81.92-36.659-81.92-81.92 36.685-81.92 81.92-81.92 81.92 36.659 81.92 81.92z" />
<glyph unicode="&#xe62d;" d="M496.64 302.080c-5.12 10.24-10.24 15.36-15.36 20.48-20.48 25.6-51.2 40.96-87.040 40.96-66.56 0-117.76-51.2-117.76-117.76 0-20.48 5.12-40.96 15.36-56.32-10.24-5.12-15.36-20.48-20.48-35.84-5.12-25.6-5.12-51.2 10.24-56.32 10.24 0 25.6 15.36 35.84 46.080 0 5.12 0 10.24 5.12 15.36 15.36-20.48 46.080-30.72 71.68-30.72 66.56 0 117.76 51.2 117.76 117.76 0 20.48-5.12 40.96-15.36 56.32zM394.24 148.48c-51.2 0-97.28 40.96-97.28 97.28 0 0 0 0 0 5.12 10.24-5.12 25.6 10.24 30.72 30.72 0 5.12 0 10.24 0 15.36 15.36-5.12 40.96-10.24 66.56-10.24s51.2 5.12 66.56 10.24c0-5.12 0-10.24 5.12-15.36 5.12-20.48 15.36-35.84 25.6-35.84 0 0 0 0 0 0 0-51.2-40.96-97.28-97.28-97.28zM117.76 363.52c-66.56 0-117.76-51.2-117.76-117.76s51.2-117.76 117.76-117.76c66.56 0 117.76 51.2 117.76 117.76s-56.32 117.76-117.76 117.76zM117.76 148.48c-51.2 0-97.28 40.96-97.28 97.28 0 20.48 5.12 40.96 20.48 56.32 0-25.6 35.84-51.2 76.8-61.44 40.96-5.12 81.92 5.12 92.16 30.72 0-10.24 5.12-15.36 5.12-25.6 0-51.2-46.080-97.28-97.28-97.28z" />
<glyph unicode="&#xe62e;" d="M512 117.76c0-10.24-5.12-15.36-15.36-15.36h-481.28c-10.24 0-15.36 5.12-15.36 15.36 0 5.12 5.12 10.24 15.36 10.24h20.48c5.12 112.64 97.28 199.68 204.8 204.8 0 0 0 0 0 0v10.24c0 10.24 5.12 15.36 15.36 15.36s15.36-5.12 15.36-15.36v-10.24c0 0 0 0 0 0 112.64-5.12 199.68-97.28 204.8-204.8h20.48c10.24 0 15.36-5.12 15.36-10.24zM430.080 163.84c-5.12 35.84-25.6 66.56-56.32 92.16-5.12 5.12-15.36 5.12-20.48 0s-5.12-15.36 0-20.48c25.6-20.48 40.96-51.2 46.080-81.92 0-5.12 10.24-10.24 15.36-10.24 0 0 0 0 5.12 0 10.24 0 15.36 10.24 10.24 20.48z" />
<glyph unicode="&#xe62f;" d="M511.184 439.6c-1.472 1.952-3.152 1.984-4.128 1.984l-45.744-0.048c-23.872 0-39.024-12.96-45.12-38.656l-70-384.288c-0.336-1.728-0.368-3.52 0.72-4.896 1.024-1.296 3.472-1.856 4.4-1.856l29.248-0.128c12.288 0 35.44 7.216 42.56 36.288l88.688 387.136c0.192 0.928 0.528 3.024-0.624 4.464zM120.128 268.864l-0.336 2.048-24 132.224c-6.048 25.424-21.232 38.416-45.072 38.416l-46.224 0.048c-1.168 0-2.768-0.88-3.776-2.080-0.912-1.088-0.768-3.072-0.56-4.080l88.768-387.504c6.592-27.808 29.792-36.144 42.096-36.144l30.016 0.144c0.976 0 2.96 0.384 3.984 1.664 1.104 1.344 1.152 3.328 0.8 4.992l-19.312 104.768c-0.72 3.664 0.72 5.584 0.72 5.584 2.048 2.192 4.88 1.36 4.88 1.36 29.088-9.936 54.704-8.992 54.704-8.992 84.128 0 129.632 60.128 129.632 60.128-21.6-16.624-53.664-26.704-80.528-26.704-68.224-0.016-124.944 49.472-135.792 114.128zM256.064 171.648c65.616 0 118.928 53.28 118.928 118.784 0 23.968-7.184 46.368-19.504 65.12-21.28 32.272-57.936 53.6-99.424 53.6-65.6 0-118.928-53.296-118.928-118.752 0-26.88 8.928-51.632 24.016-71.536 21.728-28.672 56.176-47.216 94.912-47.216zM256.064 362.096c39.584 0 71.84-32.144 71.84-71.664 0-39.584-32.256-71.76-71.84-71.76-39.664 0-71.84 32.176-71.84 71.76 0 39.52 32.192 71.664 71.84 71.664z" />
<glyph unicode="&#xe630;" d="M1593.883 59.163h-833.253c-2.466 0-4.473 1.981-4.473 4.473 0 2.479 2.008 4.473 4.473 4.473h833.253c2.479 0 4.487-1.994 4.487-4.473s-2.007-4.473-4.487-4.473zM2347.749 366.094c-29.548 0-54.582-1.657-66.978-5.296-0.499-0.135-0.997-0.337-1.441-0.525v0c-0.31-0.189-0.606-0.283-0.862-0.445-3.867-1.819-6.575-5.443-6.494-10.658 0-0.054 0-0.081 0-0.161l-0.081 0.053 0.081-136.893c0-2.654 1.832-6.265 6.211-6.265 0 0 29.763 0 29.818 0 4.447 0 5.914 3.786 5.914 6.319 0 0.027-0.283 115.052-0.283 115.052 10.658 1.873 29.481 1.954 29.481 1.954 40.974-0.31 40.273-31.947 40.273-31.947s0.014-82.473 0.014-85.733c0-2.923 2.452-5.996 6.010-5.996 0 0 29.588-0.027 29.628-0.027 3.691 0 6.508 2.533 6.508 5.969 0.053 1.104 0.135 62.033-0.202 93.050-0.351 37.012-28.079 61.548-77.595 61.548zM1985.388 365.595c-15.657 0-33.994-5.322-33.994-5.322s0.053 40.892 0.053 40.946c0 2.533-2.034 6.103-5.996 6.103-0.053 0-28.686 0-28.726 0-2.466-0.027-6.387-1.469-6.387-6.494l-0.053-180.709h0.027c0-0.135-0.027-0.188-0.027-0.31 0.053-5.848 4.204-10.685 9.755-11.762 0.068-0.027 0.108-0.081 0.161-0.081 26.974-4.527 52.992-4.204 52.992-4.204 33.576 0 91.244 6.467 91.244 80.95-0.027 74.401-63.408 80.882-79.050 80.882zM1952.134 238.875l-0.323 84.399c0 0 9.162 10.658 28.214 10.658 19.106 0 42.307-15.548 42.307-47.98-0.027-34.358-11.816-54.892-70.198-47.077zM910.174 407.296c-0.040 0-0.040 0-0.081 0v0h-32.471c-0.053 0-0.053 0-0.094 0-2.492-0.081-4.581-1.711-4.608-4.527l-0.014-0.027v-75.452h-80.587l-0.027 73.769c0 3.651-2.938 6.239-6.144 6.239-0.027 0-29.144 0-29.144 0-2.115 0-6.225-1.348-6.225-6.71 0-0.418 0-185.182 0-185.182l0.014 0.31c0-0.053-0.014-4.163-0.014-4.19 0-3.503 3.072-5.82 5.942-5.82l0.040-0.027h29.44c0.027 0-3.584-0.081-3.543-0.081 0 0 3.732 0.081 3.759 0.081v0c2.938 0 5.888 2.627 5.888 5.996l0.014 0.31v81.893h80.587l0.014-82.419c0-3.584 3.422-5.793 6.212-5.793 0 0 29.346-0.081 29.372-0.081 4.621 0 6.158 3.53 6.239 6.346l0.053 190.788h-0.027c-0.027 2.56-2.074 4.608-4.595 4.581zM1514.442 235.803c0 4.635-3.84 6.292-6.4 6.212-0.161 0-16.128-1.374-16.128-1.374-23.687-1.927-23.296 11.816-23.296 11.816l-0.053 148.211c0 4.258-3.584 5.901-6.050 5.901l-29.831 0.053c-2.411-0.161-6.050-1.684-6.050-6.212l-0.027-142.969c0-45.838 35.139-53.841 54.973-53.841 4.5 0 8.677 0.161 12.396 0.363 7.357 0.39 11.561 0.97 15.063 1.496 0.283 0.027-0.053 0 0.134 0.081 2.95 0.337 5.295 3.126 5.295 5.712-0.027 0.041-0.027 24.496-0.027 24.549zM1214.544 242.014c-0.134 0-16.101-1.374-16.101-1.374-23.673-1.927-23.296 11.816-23.296 11.816v81.785l33.024 0.027c4.204 0 6.306 3.126 6.306 5.847 0 0 0.041 19.658 0.041 19.712 0 4.419-3.665 6.427-6.211 6.373-0.027 0-33.159-0.027-33.159-0.027l-0.094 31.784c0 6.373-5.133 7.68-7.922 6.98-0.283-0.053-25.317-5.322-25.317-5.322l-0.014-0.053c-4.77-1.267-8.408-5.080-8.61-10.846h-0.041v-0.499c0-0.027-0.027-0.081-0.027-0.108s0.027-0.081 0.027-0.135v-130.546c0-45.838 35.112-53.841 54.973-53.841 4.473 0 8.637 0.161 12.342 0.363 7.438 0.39 11.749 0.97 15.226 1.496 0.39 0.081 0-0.053 0.243 0.081 3.975 0.606 4.958 4.312 4.958 6.292l-0.027 23.768c0.014 4.891-3.867 6.508-6.319 6.427zM1886.073 357.147c0.486 3.921-2.601 6.238-4.918 6.602-0.202 0.108-10.63 1.374-18.473 2.129-3.706 0.39-9.836 0.835-14.35 0.835-19.86 0-52.736-8.663-52.736-54.474v-20.966c0 0 0.041-79.266 0.041-79.32 0-3.086 2.034-6.4 6.184-6.4 0.053 0 29.979 0 29.979 0 2.52 0.053 5.807 2.129 5.807 6.184l0.014 33.294v74.739c0 0-2.169 14.74 23.296 11.843 0 0 13.878-1.293 15.428-1.414 2.506-0.243 5.564 1.212 6.454 4.918-0.068 0 3.274 21.976 3.274 22.029zM2611.793 283.244c0 86.662-80.95 83.132-80.95 83.132h-3.517c-18.028-0.688-76.584-8.421-76.584-82.082 0 0-5.026-81.206 78.296-81.206h6.184c83.294 0 76.571 80.154 76.571 80.154zM2532.204 235.883c-26.948 0-40.623 21.369-40.623 47.846s13.123 49.206 38.898 49.206c26.193 0 40.907-22.744 40.907-49.206s-12.961-47.846-39.182-47.846zM1024.323 366.376h-3.476c-18.082-0.688-76.584-8.421-76.584-82.082 0 0-5.026-81.206 78.269-81.206h6.184c83.294 0 76.557 80.154 76.557 80.154-0.014 86.663-80.95 83.133-80.95 83.133zM1025.711 235.883c-27.001 0-40.637 21.369-40.637 47.846s13.096 49.206 38.871 49.206c26.193 0 40.907-22.744 40.907-49.206s-12.948-47.846-39.141-47.846zM1760.363 401.3c0 2.425-1.603 6.050-6.44 6.050l-28.254 0.081c-3.005 0-6.319-1.927-6.319-6.292l0.108-160.997h-47.32c-21.531 0-32.283 10.55-32.283 31.609 0 0-0.202 129.738-0.202 129.765 0 3.005-3.287 5.969-5.834 5.915l-29.938-0.054c-4.056 0-6.534-3.085-6.589-5.82l-0.108-130.789c0-9.553 2.116-18.028 5.888-25.923 3.759-7.896 8.825-14.713 15.293-20.453 6.454-5.794 14.080-10.24 22.891-13.366 8.772-3.058 18.216-4.689 28.294-4.689 7.841 0 59.082 0.053 78.969 0.081 0.188 0 0.337 0.053 0.525 0.081 6.238 0.363 11.264 5.188 11.426 11.479v0.188c0.041 0-0.108 183.108-0.108 183.134zM1319.599 366.403c-72.502 0-80.492-59.056-80.492-78.027s0.188-84.453 86.649-84.453c0 0 30.087-1.212 59.796 9.499l0.378 0.135c2.843 0.836 4.662 4.19 3.746 7.896l-3.678 16.923c-0.917 3.207-4.244 5.296-7.559 4.554 0 0-23.767-6.737-49.53-6.737-46.605 0-48.856 35.84-48.856 35.84s106.483 0.027 106.536 0.027c2.668 0 6.306 1.549 6.306 6.818l0.041 18.971c0 0 0 68.554-73.338 68.554zM1279.879 302.848c0 0 2.411 31.084 38.683 31.084 33.643 0 34.533-31.084 34.533-31.084h-73.216zM2162.405 366.296c-31.232-0.027-59.231-10.024-59.231-10.024l-0.836-0.283c-2.506-0.794-5.026-3.759-3.974-7.68l5.443-18.81c1.024-3.705 4.447-5.16 8.057-4.258 0 0 23.727 8.502 49.476 9.189 39.653 1.024 37.322-17.557 37.336-26.557 0.053-3.031-0.014-2.102-0.014-2.102l-3.49-0.027h-56.684c0 0-52.372 1.267-52.372-51.577 0-51.968 63.704-49.759 63.704-49.759 74.954-0.97 80.182 1.348 80.182 1.348s9.229 0 9.229 10.873c0 0 0 82.998 0 95.138 0 12.113 2.789 54.528-76.827 54.528zM2146.439 237.218c0 0-21.611-0.525-21.611 18.742 0 21.208 24.401 20.049 24.401 20.049h49.030l0.108-38.576-51.927-0.216zM1682.432 37.268c3.449 9.849 7.155 19.793 11.13 29.817l18.311 46.39h11.601l-36.19-90.207h-10.146l-36.19 90.207h11.614l18.311-46.39c4.028-10.024 7.761-19.941 11.197-29.817h0.363zM1738.091 102.251v11.654h10.442v-11.654h-10.442zM1738.389 23.269v64.027h10.442v-64.027h-10.442zM1812.601 30.329h-0.283c-0.835-1.078-1.927-2.129-3.234-3.207-1.293-1.024-2.816-1.967-4.527-2.789-1.698-0.836-3.571-1.482-5.591-2.007-2.007-0.471-4.204-0.728-6.481-0.728-3.099 0-5.956 0.445-8.529 1.388-2.613 0.916-4.851 2.291-6.71 4.069-1.86 1.792-3.314 3.948-4.339 6.508-1.024 2.533-1.59 5.43-1.59 8.704 0 3.166 0.607 6.010 1.738 8.556 1.131 2.533 2.748 4.689 4.823 6.4 2.102 1.765 4.581 3.126 7.478 4.056 2.897 0.943 6.171 1.414 9.648 1.414 3.314-0.053 6.414-0.31 9.256-0.862 2.87-0.553 5.349-1.212 7.572-1.981h0.283v4.406c0 1.738-0.134 3.288-0.351 4.675s-0.607 2.533-1.159 3.598c-1.159 2.115-3.045 3.921-5.605 5.336-2.533 1.401-6.036 2.142-10.401 2.142-3.234 0-6.292-0.296-9.162-0.902-2.857-0.633-5.713-1.455-8.542-2.533v8.744c1.104 0.553 2.358 1.051 3.826 1.522 1.496 0.458 3.005 0.876 4.621 1.24 1.617 0.296 3.354 0.579 5.133 0.781 1.805 0.188 3.624 0.269 5.403 0.269 6.481 0 11.79-1.132 15.912-3.422 4.15-2.317 7.088-5.336 8.879-9.135 0.688-1.414 1.172-3.018 1.468-4.757 0.283-1.738 0.431-3.651 0.431-5.712v-42.752h-8.772l-1.199 6.979zM1812.062 51.375c-1.94 0.553-4.244 1.051-6.912 1.55-2.587 0.526-5.538 0.795-8.717 0.822-4.447 0-7.922-0.943-10.428-2.843s-3.746-4.769-3.746-8.69c0-1.994 0.31-3.732 0.957-5.255 0.607-1.455 1.468-2.668 2.56-3.651 1.104-0.957 2.399-1.684 3.921-2.142 1.468-0.498 3.085-0.755 4.783-0.755 2.223 0 4.325 0.337 6.265 0.997 1.927 0.66 3.651 1.414 5.133 2.317 1.509 0.889 2.789 1.792 3.84 2.709 1.051 0.862 1.819 1.577 2.344 2.075v12.868zM1860.487 8.96c0-5.901-1.738-10.469-5.107-13.784-3.396-3.315-8.704-4.931-16.061-4.931-1.967 0-3.773 0.135-5.564 0.404-1.792 0.31-3.085 0.606-3.961 0.916v8.92c1.361-0.363 2.695-0.66 4.069-0.836 1.348-0.216 2.736-0.296 4.204-0.296 4.271 0 7.343 0.849 9.203 2.613 1.846 1.752 2.748 4.5 2.748 8.26v77.083h10.496l-0.027-78.35zM1849.721 102.251v11.654h10.456v-11.654h-10.456zM1924.258 30.329h-0.283c-0.835-1.078-1.927-2.129-3.247-3.207-1.307-1.024-2.816-1.967-4.527-2.789s-3.598-1.482-5.578-2.007c-2.007-0.471-4.204-0.728-6.508-0.728-3.085 0-5.928 0.445-8.556 1.388-2.573 0.916-4.81 2.291-6.683 4.069-1.846 1.792-3.314 3.948-4.339 6.508-1.051 2.533-1.536 5.43-1.536 8.704 0 3.166 0.525 6.010 1.698 8.556 1.159 2.533 2.762 4.689 4.837 6.4 2.062 1.765 4.554 3.126 7.478 4.056 2.897 0.943 6.13 1.414 9.633 1.414 3.341-0.053 6.427-0.31 9.27-0.862s5.336-1.212 7.572-1.981h0.283v4.406c0 1.738-0.149 3.288-0.337 4.675-0.243 1.388-0.633 2.533-1.146 3.598-1.199 2.115-3.072 3.921-5.619 5.336-2.587 1.401-6.023 2.142-10.416 2.142-3.234 0-6.279-0.296-9.136-0.902-2.883-0.633-5.74-1.455-8.582-2.533v8.744c1.104 0.553 2.384 1.051 3.813 1.522 1.456 0.458 3.018 0.876 4.634 1.24 1.658 0.296 3.341 0.579 5.12 0.781 1.819 0.188 3.624 0.269 5.403 0.269 6.508 0 11.816-1.132 15.953-3.422 4.123-2.317 7.047-5.336 8.866-9.135 0.714-1.414 1.186-3.018 1.456-4.757s0.418-3.651 0.418-5.712v-42.752h-8.772l-1.172 6.979zM1923.732 51.375c-1.954 0.553-4.23 1.051-6.899 1.55-2.628 0.526-5.524 0.795-8.731 0.822-4.447 0-7.896-0.943-10.401-2.843s-3.773-4.769-3.773-8.69c0-1.994 0.296-3.732 0.929-5.255 0.633-1.455 1.509-2.668 2.587-3.651 1.104-0.957 2.426-1.684 3.893-2.142 1.496-0.498 3.085-0.755 4.797-0.755 2.223 0 4.325 0.337 6.279 0.997 1.927 0.66 3.651 1.414 5.133 2.317 1.509 0.889 2.789 1.792 3.84 2.709 1.011 0.862 1.846 1.577 2.344 2.075v12.868zM1994.914 78.848h-0.822c-2.533 0-4.904-0.256-7.303-0.688-2.411-0.471-4.649-1.132-6.751-2.075-2.074-0.916-3.975-2.021-5.632-3.422-1.684-1.32-3.099-2.923-4.258-4.783v-44.611h-10.416v64.027h8.057l2.021-10.132h0.256c1.024 1.63 2.291 3.207 3.813 4.608 1.482 1.442 3.167 2.709 5.080 3.813 1.94 1.051 3.975 1.927 6.238 2.533 2.25 0.606 4.581 0.889 7.088 0.889 0.445 0 0.862 0 1.388-0.027 0.472-0.027 0.902-0.053 1.266-0.108l-0.027-10.024zM2066.351 30.666c3.477 0 6.629 0.283 9.499 0.862 2.843 0.553 5.686 1.348 8.556 2.372v-8.704c-2.291-1.132-5.16-1.981-8.529-2.641-3.369-0.673-7.020-0.97-10.887-0.97-4.608 0-8.892 0.579-12.961 1.765-4.001 1.159-7.532 3.031-10.416 5.632-2.978 2.601-5.282 6.022-6.993 10.213-1.643 4.231-2.493 9.283-2.493 15.212 0 5.875 0.835 10.94 2.439 15.239 1.63 4.258 3.8 7.868 6.454 10.738 2.695 2.87 5.821 5.026 9.297 6.467s7.141 2.156 10.981 2.156c3.611 0 6.952-0.553 10.079-1.792 3.099-1.186 5.82-3.072 8.138-5.606 2.277-2.574 4.096-5.901 5.39-9.917 1.347-4.082 1.994-8.919 1.994-14.579 0-0.553 0-0.997 0-1.374 0-0.39-0.014-1.307-0.068-2.601h-44.329c0-4.11 0.62-7.559 1.846-10.416 1.266-2.87 2.95-5.188 5.106-6.952 2.129-1.765 4.635-3.086 7.546-3.867 2.938-0.822 6.037-1.24 9.351-1.24zM2060.854 80.060c-2.425 0-4.689-0.471-6.764-1.414-2.075-0.97-3.881-2.264-5.443-3.867-1.536-1.603-2.789-3.503-3.732-5.686-0.997-2.183-1.55-4.527-1.805-6.979h32.849c0 2.533-0.323 4.891-0.957 7.047-0.673 2.142-1.657 4.056-2.938 5.686-1.294 1.603-2.87 2.897-4.742 3.813-1.846 0.93-4.015 1.401-6.468 1.401zM2073.142 114.432l-8.084-15.373h-8.758l5.524 15.373h11.318zM2191.494 56.037c0-4.447-0.418-8.394-1.32-11.843s-2.075-6.454-3.517-8.974c-1.456-2.574-3.14-4.769-5.093-6.454-1.968-1.738-3.974-3.152-6.050-4.204-2.088-1.051-4.191-1.819-6.347-2.291-2.129-0.471-4.191-0.728-6.077-0.728-3.921 0-7.343 0.647-10.24 1.94-2.897 1.28-5.497 3.166-7.814 5.686h-0.216v-37.296h-10.294v95.38h7.936l2.197-7.222h0.242c0.606 0.902 1.361 1.765 2.264 2.56 0.903 0.916 2.182 1.792 3.732 2.762 1.523 0.97 3.409 1.819 5.591 2.533s4.541 1.064 7.088 1.064c3.638 0 7.101-0.606 10.442-1.792 3.369-1.24 6.319-3.166 8.919-5.848 2.533-2.627 4.581-6.050 6.144-10.213 1.617-4.069 2.412-9.149 2.412-15.063zM2180.514 55.902c0 3.732-0.39 7.074-1.159 10.024-0.836 3.005-1.981 5.524-3.584 7.572-1.577 2.129-3.544 3.732-5.874 4.837-2.291 1.132-4.972 1.711-8.030 1.711-2.129 0-4.137-0.283-5.928-0.889-1.792-0.579-3.409-1.348-4.851-2.209-1.428-0.93-2.681-1.873-3.732-2.897-1.037-1.051-1.872-1.967-2.533-2.789v-33.509c2.223-2.237 4.769-4.042 7.586-5.336 2.829-1.307 5.861-1.967 9.148-1.967 1.968 0 4.11 0.377 6.319 1.132 2.209 0.741 4.258 2.034 6.157 3.948 1.846 1.954 3.45 4.527 4.635 7.815 1.267 3.301 1.846 7.478 1.846 12.558zM2270.518 55.242c0-5.026-0.714-9.607-2.129-13.757-1.441-4.163-3.517-7.653-6.131-10.63-2.654-2.95-5.861-5.241-9.552-6.872-3.759-1.603-7.95-2.399-12.611-2.399-4.769 0-9.041 0.795-12.773 2.399-3.773 1.63-6.992 3.921-9.607 6.872-2.613 2.978-4.662 6.467-6.010 10.63-1.428 4.163-2.129 8.731-2.129 13.757 0 5.079 0.741 9.688 2.182 13.797 1.401 4.123 3.45 7.68 6.104 10.63 2.628 2.964 5.874 5.308 9.607 6.912s7.95 2.425 12.611 2.425c4.716 0 8.974-0.822 12.733-2.425 3.813-1.603 7.006-3.948 9.633-6.912 2.573-2.95 4.595-6.508 5.969-10.63 1.388-4.11 2.102-8.717 2.102-13.797zM2259.564 55.242c0 3.921-0.472 7.451-1.441 10.523-0.997 3.086-2.318 5.686-4.056 7.801-1.738 2.129-3.8 3.759-6.184 4.864-2.398 1.104-5.012 1.658-7.829 1.658-2.843 0-5.483-0.553-7.869-1.658s-4.432-2.736-6.171-4.864c-1.724-2.115-3.086-4.743-4.056-7.801-0.943-3.086-1.441-6.602-1.441-10.523s0.499-7.397 1.441-10.523c0.97-3.058 2.331-5.659 4.096-7.761 1.765-2.129 3.813-3.705 6.211-4.837 2.412-1.104 5.026-1.658 7.829-1.658 2.856 0 5.416 0.553 7.829 1.658 2.344 1.132 4.406 2.709 6.144 4.837 1.738 2.102 3.059 4.716 4.056 7.761 0.97 3.139 1.441 6.602 1.441 10.523zM2299.809 70.279c0-1.765 0.351-3.18 1.131-4.339 0.768-1.064 1.738-1.981 3.005-2.695 1.253-0.728 2.709-1.28 4.365-1.738 1.657-0.445 3.369-0.836 5.133-1.199 2.425-0.526 4.729-1.159 6.898-1.792 2.129-0.66 4.137-1.658 5.942-2.95 1.846-1.32 3.287-3.058 4.419-5.296 1.131-2.209 1.684-5.134 1.684-8.637 0-3.288-0.633-6.13-1.872-8.65-1.28-2.519-3.059-4.581-5.363-6.292-2.264-1.684-5.052-2.964-8.233-3.813-3.18-0.876-6.697-1.334-10.537-1.334-2.318 0-4.46 0.121-6.387 0.337-1.9 0.269-3.624 0.579-5.079 0.97-1.428 0.363-2.709 0.741-3.706 1.159-1.051 0.39-1.927 0.795-2.601 1.159v8.758c2.681-1.024 5.336-1.9 7.896-2.533 2.628-0.66 5.483-0.957 8.65-0.957 2.492 0 4.729 0.243 6.697 0.714 1.994 0.418 3.706 1.104 5.12 1.967 1.456 0.862 2.56 1.994 3.369 3.315 0.755 1.361 1.172 2.843 1.172 4.622 0 1.819-0.363 3.274-1.091 4.473-0.714 1.132-1.657 2.115-2.829 2.897-1.199 0.741-2.573 1.374-4.163 1.873s-3.233 0.97-4.945 1.374c-2.237 0.498-4.554 1.024-6.872 1.711-2.318 0.714-4.447 1.658-6.36 2.87-1.887 1.212-3.436 2.843-4.608 4.971-1.159 2.075-1.738 4.743-1.738 8.031 0 3.368 0.606 6.306 1.805 8.784 1.213 2.479 2.897 4.5 4.945 6.13 2.021 1.603 4.473 2.843 7.235 3.638 2.709 0.836 5.646 1.226 8.704 1.226 3.53 0 6.818-0.337 9.863-1.024 3.059-0.7 5.82-1.522 8.26-2.533v-8.892c-2.613 1.051-5.296 1.9-7.977 2.533-2.709 0.633-5.497 0.997-8.34 1.051-2.425 0-4.5-0.243-6.238-0.741-1.711-0.498-3.086-1.212-4.204-2.048-1.119-0.889-1.94-1.927-2.439-3.126-0.445-1.24-0.714-2.533-0.714-3.974zM2361.021 70.279c0-1.765 0.378-3.18 1.104-4.339 0.809-1.064 1.765-1.981 3.032-2.695 1.267-0.728 2.709-1.28 4.365-1.738 1.631-0.445 3.341-0.836 5.133-1.199 2.412-0.526 4.716-1.159 6.858-1.792 2.142-0.66 4.15-1.658 5.982-2.95 1.819-1.32 3.26-3.058 4.447-5.296 1.104-2.209 1.657-5.134 1.657-8.637 0-3.288-0.66-6.13-1.9-8.65-1.294-2.519-3.059-4.581-5.336-6.292-2.291-1.684-5.026-2.964-8.233-3.813-3.207-0.876-6.71-1.334-10.55-1.334-2.318 0-4.447 0.121-6.373 0.337-1.927 0.269-3.638 0.579-5.079 0.97-1.456 0.363-2.709 0.741-3.732 1.159-1.037 0.39-1.9 0.795-2.546 1.159v8.758c2.613-1.024 5.282-1.9 7.896-2.533 2.56-0.66 5.47-0.957 8.61-0.957 2.466 0 4.716 0.243 6.697 0.714 1.981 0.418 3.719 1.104 5.16 1.967 1.401 0.862 2.533 1.994 3.314 3.315 0.755 1.361 1.172 2.843 1.172 4.622 0 1.819-0.363 3.274-1.064 4.473-0.714 1.132-1.657 2.115-2.843 2.897-1.213 0.741-2.587 1.374-4.177 1.873-1.563 0.498-3.233 0.97-4.932 1.374-2.277 0.498-4.514 1.024-6.885 1.711-2.318 0.714-4.447 1.658-6.347 2.87-1.913 1.212-3.409 2.843-4.595 4.971-1.172 2.075-1.751 4.743-1.751 8.031 0 3.368 0.593 6.306 1.805 8.784 1.227 2.479 2.87 4.5 4.932 6.13 2.048 1.603 4.5 2.843 7.235 3.638 2.735 0.836 5.659 1.226 8.704 1.226 3.584 0 6.818-0.337 9.89-1.024 3.032-0.7 5.794-1.522 8.26-2.533v-8.892c-2.613 1.051-5.322 1.9-8.003 2.533s-5.497 0.997-8.34 1.051c-2.439 0-4.5-0.243-6.211-0.741s-3.086-1.212-4.204-2.048c-1.104-0.889-1.927-1.927-2.398-3.126-0.526-1.24-0.755-2.533-0.755-3.974zM2415.401 23.269v64.027h10.456v-64.027h-10.456zM2433.119 114.27l-7.801-15.212h-8.771l5.241 15.212h11.331zM2473.715 33.846c1.523 4.662 3.651 10.63 6.306 17.866l12.854 35.584h10.469l-24.307-64.027h-10.873l-24.239 64.027h10.416l12.814-35.584c2.533-7.020 4.608-12.988 6.238-17.866h0.323zM2550.407 30.666c3.463 0 6.602 0.283 9.499 0.862 2.816 0.553 5.7 1.348 8.542 2.372v-8.704c-2.331-1.132-5.147-1.981-8.542-2.641-3.369-0.673-7.020-0.97-10.873-0.97-4.622 0-8.919 0.579-12.961 1.765-4.001 1.159-7.519 3.031-10.456 5.632-2.923 2.601-5.255 6.022-6.939 10.213-1.671 4.231-2.479 9.283-2.479 15.212 0 5.875 0.809 10.94 2.398 15.239 1.644 4.258 3.787 7.868 6.481 10.738 2.681 2.87 5.794 5.026 9.27 6.467 3.557 1.442 7.209 2.156 10.994 2.156 3.611 0 6.966-0.553 10.079-1.792 3.126-1.186 5.847-3.072 8.138-5.606 2.264-2.574 4.096-5.901 5.416-9.917 1.32-4.082 1.968-8.919 1.968-14.579 0-0.553 0-0.997 0-1.374 0-0.39-0.027-1.307-0.068-2.601h-44.302c0-4.11 0.606-7.559 1.846-10.416 1.253-2.87 2.95-5.188 5.079-6.952s4.635-3.086 7.546-3.867c2.87-0.822 6.037-1.24 9.364-1.24zM2544.896 80.060c-2.466 0-4.675-0.471-6.764-1.414-2.075-0.97-3.881-2.264-5.443-3.867-1.536-1.603-2.829-3.503-3.746-5.686-0.97-2.183-1.55-4.527-1.792-6.979h32.849c0 2.533-0.323 4.891-0.997 7.047-0.673 2.142-1.631 4.056-2.897 5.686-1.307 1.603-2.856 2.897-4.756 3.813-1.846 0.93-4.015 1.401-6.454 1.401zM2612.264 32.175h-5.403c0 0-5.026 0.202-5.026 5.498l-0.053 75.547h-10.496v-75.547c0-11.762 8.974-16.074 15.211-16.128l5.794 0.053-0.027 10.577zM691.551 431.885c-1.456 1.9-3.058 1.927-4.082 1.927l-44.692-0.053c-23.323 0-38.171-12.679-44.14-37.875l-68.447-376.374c-0.337-1.658-0.39-3.422 0.688-4.769 1.024-1.253 3.395-1.832 4.352-1.832l28.578-0.135c12.019 0 34.654 7.060 41.593 35.543l86.744 379.19c0.176 0.93 0.499 2.951-0.592 4.379zM309.14 264.663l-0.351 2.021-23.471 129.496c-5.901 24.899-20.75 37.606-44.072 37.606l-45.19 0.067c-1.145 0-2.708-0.862-3.691-2.048-0.876-1.051-0.755-3.005-0.553-4.002l86.811-379.553c6.44-27.217 29.117-35.368 41.162-35.368l29.373 0.108c0.943 0 2.87 0.39 3.894 1.658 1.078 1.32 1.104 3.26 0.768 4.864l-18.877 102.656c-0.728 3.584 0.7 5.443 0.7 5.443 2.007 2.156 4.743 1.348 4.743 1.348 28.457-9.741 53.517-8.812 53.517-8.812 82.27 0 126.76 58.867 126.76 58.867-21.113-16.289-52.493-26.125-78.754-26.125-66.695-0.014-122.18 48.438-132.769 111.778zM442.058 169.458c64.135 0 116.292 52.157 116.292 116.319 0 23.498-7.020 45.42-19.092 63.784-20.803 31.609-56.616 52.493-97.199 52.493-64.149 0-116.305-52.183-116.305-116.291 0-26.314 8.744-50.58 23.498-70.077 21.248-28.066 54.946-46.228 92.807-46.228zM442.058 355.989c38.723 0 70.239-31.475 70.239-70.212 0-38.764-31.514-70.292-70.238-70.292-38.764 0-70.252 31.529-70.252 70.292 0 38.737 31.488 70.212 70.251 70.212z" horiz-adv-x="2816" />
<glyph unicode="&#xe631;" d="M493.849 476.007c-2.765 8.064-11.495 12.313-19.481 9.523s-12.185-11.623-9.395-19.712c23.552-68.352-23.194-119.399-58.803-146.714l-14.413 20.839c-4.813 6.963-15.667 12.774-24.064 12.903l-80.768-0.384c-8.397 0.128-20.889-3.763-27.801-8.627l-237.977-168.653c-11.52-8.166-14.361-24.243-6.272-35.917l108.186-156.339c8.064-11.674 21.043-10.266 32.563-2.125l237.978 168.679c6.912 4.864 14.771 15.462 17.562 23.501l25.293 80.538c2.739 8.038 1.075 20.327-3.738 27.289l-8.806 12.697c47.846 36.992 97.51 102.451 69.939 182.502zM383.13 236.493c-18.457-13.082-43.879-8.525-56.807 10.137-12.902 18.663-8.423 44.39 10.035 57.472 14.643 10.394 33.664 9.625 47.36-0.461-6.912-4.198-11.623-6.605-12.519-7.040-7.629-3.635-10.906-12.851-7.296-20.582 2.611-5.607 8.089-8.909 13.849-8.909 2.176 0 4.403 0.486 6.502 1.485 4.889 2.329 10.189 5.171 15.693 8.473 2.457-15.181-3.533-31.155-16.819-40.576z" />
<glyph unicode="&#xe632;" d="M287.462 198.938c-40.525-40.55-87.475-79.309-106.035-60.723-26.573 26.547-42.931 49.69-101.504 2.637s-13.594-78.438 12.16-104.192c29.696-29.671 140.391-1.562 249.831 107.853 109.389 109.415 137.549 220.135 107.827 249.831-25.728 25.753-57.088 70.707-104.166 12.16s-23.936-74.931 2.637-101.504c18.509-18.586-20.224-65.511-60.749-106.061z" />
<glyph unicode="&#xe633;" d="M379.392 116.531c-63.104 22.989-83.277 42.394-83.277 83.942 0 24.935 19.277 16.793 27.725 62.464 3.507 18.944 20.531 0.307 23.808 43.545 0 17.229-9.293 21.529-9.293 21.529s4.736 25.523 6.579 45.133c2.253 24.474-14.131 87.654-101.734 87.654-87.578 0-104.013-63.181-101.709-87.654 1.843-19.61 6.579-45.133 6.579-45.133s-9.319-4.275-9.319-21.529c3.251-43.238 20.275-24.601 23.782-43.545 8.474-45.671 27.75-37.53 27.75-62.464 0-41.549-20.173-60.954-83.277-83.942-63.334-23.040-104.448-46.567-104.448-62.618 0-16.026 0-53.888 0-53.888h481.28c0 0 0 37.863 0 53.888s-41.139 39.552-104.448 62.618z" />
<glyph unicode="&#xe634;" d="M460.8 435.2h-409.6c-28.16 0-51.2-23.040-51.2-51.2v-307.2c0-28.16 23.040-51.2 51.2-51.2h409.6c28.185 0 51.2 23.040 51.2 51.2v307.2c0 28.16-23.014 51.2-51.2 51.2zM460.8 76.8h-409.6v307.2h409.6v-307.2zM230.4 176.64h-128v-46.080h128v46.080zM230.4 253.44h-128v-46.080h128v46.080zM230.4 330.24h-128v-46.080h128v46.080zM407.040 166.4c0 0-43.52 11.366-43.52 33.741 0 21.299 28.185 30.259 28.185 73.779 0 35.328-10.752 56.32-46.106 56.32s-46.080-20.966-46.080-56.32c0-43.52 28.16-52.48 28.16-73.779 0-22.375-43.495-33.741-43.495-33.741-2.586 0-2.586-35.84-2.586-35.84h128c0 0 0 35.84-2.56 35.84z" />
<glyph unicode="&#xe635;" d="M256 484.164c-130.173 0-235.726-105.553-235.726-235.726v-183.343c0-43.347 35.228-78.576 78.576-78.576h78.576v209.534h-104.767v52.383c0 101.231 82.112 183.342 183.342 183.342s183.342-82.111 183.342-183.342v-52.383h-104.767v-209.534h78.575c43.347 0 78.576 35.228 78.576 78.576v183.343c0 130.173-105.553 235.726-235.726 235.726z" />
<glyph unicode="&#xe636;" d="M409.6 256h-307.2c-14.131 0-25.6-11.469-25.6-25.6s11.469-25.6 25.6-25.6h307.2c14.157 0 25.6 11.469 25.6 25.6s-11.443 25.6-25.6 25.6zM102.4 307.2h307.2c14.157 0 25.6 11.469 25.6 25.6s-11.443 25.6-25.6 25.6h-307.2c-14.131 0-25.6-11.469-25.6-25.6s11.469-25.6 25.6-25.6zM409.6 153.6h-307.2c-14.131 0-25.6-11.443-25.6-25.6s11.469-25.6 25.6-25.6h307.2c14.157 0 25.6 11.443 25.6 25.6s-11.443 25.6-25.6 25.6z" />
<glyph unicode="&#xe637;" d="M212.352 51.2c-11.136 0-21.683 5.197-28.441 14.157l-91.495 120.781c-11.904 15.719-8.806 38.093 6.912 49.997 15.744 11.929 38.093 8.806 49.997-6.912l60.185-79.463 151.347 242.97c10.419 16.717 32.435 21.837 49.178 11.418 16.717-10.394 21.837-32.435 11.392-49.152l-178.765-286.976c-6.221-10.010-16.947-16.281-28.697-16.793-0.537-0.026-1.075-0.026-1.613-0.026z" />
<glyph unicode="&#xe638;" d="M389.094 256h-266.214c-14.157 0-15.36-11.469-15.36-25.6s1.203-25.6 15.36-25.6h266.214c14.157 0 15.385 11.469 15.385 25.6s-1.229 25.6-15.385 25.6z" />
<glyph unicode="&#xe639;" d="M389.094 256h-107.52v107.52c0 14.131-11.443 15.36-25.6 15.36-14.131 0-25.6-1.203-25.6-15.36v-107.52h-107.495c-14.157 0-15.36-11.469-15.36-25.6s1.203-25.6 15.36-25.6h107.495v-107.52c0-14.131 11.469-15.36 25.6-15.36 14.157 0 25.6 1.229 25.6 15.36v107.52h107.52c14.157 0 15.385 11.469 15.385 25.6s-1.229 25.6-15.385 25.6z" />
<glyph unicode="&#xe63a;" d="M506.88 256h-430.080v148.48c0 5.12-5.12 5.12-5.12 5.12h-66.56c0 0-5.12-5.12-5.12-5.12v-343.040c0-5.12 5.12-5.12 5.12-5.12h61.44c5.12 0 5.12 5.12 5.12 5.12v92.16h358.4v-97.28c0-5.12 5.12-5.12 5.12-5.12h61.44c5.12 0 5.12 5.12 5.12 5.12v194.56c10.24 5.12 5.12 5.12 5.12 5.12zM107.52 281.6h138.24c5.12 0 10.24 0 10.24 5.12v40.96c0 0-5.12 5.12-5.12 5.12h-143.36c0 0-5.12-5.12-5.12-5.12v-40.96c0-5.12 5.12-5.12 5.12-5.12z" />
<glyph unicode="&#xe63b;" d="M256 476.16c-135.731 0-245.76-110.029-245.76-245.76s110.029-245.76 245.76-245.76 245.76 110.029 245.76 245.76-110.029 245.76-245.76 245.76zM195.84 128.537h-49.767v160.128h49.767v-160.128zM170.649 308.327c-15.719 0-25.881 11.161-25.881 24.909 0 14.080 10.47 24.883 26.522 24.883s25.881-10.803 26.189-24.883c0.025-13.773-10.137-24.909-26.829-24.909zM377.575 128.537h-49.741v88.755c0 20.634-7.219 34.688-25.216 34.688-13.747 0-21.913-9.498-25.549-18.662-1.305-3.251-1.639-7.859-1.639-12.416v-92.339h-49.792v109.056c0 19.968-0.64 36.685-1.305 51.072h43.213l2.304-22.246h0.973c6.553 10.471 22.605 25.856 49.459 25.856 32.743 0 57.293-21.913 57.293-69.069v-94.695z" />
<glyph unicode="&#xe63c;" d="M256 480c-88.366 0-160-71.634-160-160 0-160 160-352 160-352s160 192 160 352c0 88.366-71.635 160-160 160zM256 224c-53.020 0-96 42.98-96 96s42.98 96 96 96 96-42.98 96-96-42.98-96-96-96z" />
<glyph unicode="&#xe63d;" d="M256 121.6c-30.72 0-51.2-25.6-51.2-51.2s25.6-51.2 51.2-51.2c30.72 0 51.2 25.6 51.2 51.2s-20.48 51.2-51.2 51.2zM148.48 177.92l35.84-35.84c40.96 40.96 107.52 40.96 148.48 0l35.84 35.84c-61.44 61.44-163.84 61.44-220.16 0zM71.68 249.6l35.84-35.84c81.92 81.92 209.92 81.92 291.84 0l35.84 35.84c-97.28 102.4-261.12 102.4-363.52 0zM0 326.4l35.84-35.84c122.88 122.88 317.44 122.88 440.32 0l35.84 35.84c-143.36 143.36-368.64 143.36-512 0z" />
<glyph unicode="&#xe63e;" d="M15.36 116.48c0 0 5.12 0 10.24 0 15.36 0 40.96 0 56.32 15.36 15.36-10.24 30.72-15.36 46.080-15.36 0 0 0 0 0 0s5.12 0 10.24 0c15.36 0 40.96 0 56.32 15.36 20.48-15.36 46.080-15.36 61.44-15.36 5.12 0 10.24 0 10.24 0s0 0 0 0c15.36 0 30.72 5.12 46.080 10.24 15.36-5.12 35.84-10.24 46.080-10.24 0 0 0 0 0 0s5.12 0 10.24 0c15.36 0 40.96 0 56.32 15.36 15.36-10.24 40.96-15.36 56.32-15.36 5.12 0 10.24 0 10.24 0 10.24 0 15.36 5.12 15.36 15.36s-5.12 15.36-15.36 15.36c-15.36 0-46.080 0-56.32 10.24 0 0 0 0 0 0s0 0 0 0 0 0 0 0 0 0 0 0 0 0 0 0 0 0 0 0 0 0 0 0 0 0 0 0 0 0 0 0 0 0 0 0 0 0 0 0 0 0 0 0 0 0 0 0 0 0 0 0 0 0 0 0 0 0 0 0 0 0 0 0 0 0 0 0 0 0 0 0 0 0 0 0c-20.48-5.12-35.84-10.24-51.2-10.24 0 0 0 0 0 0-5.12 0-10.24 0-10.24 0s0 0 0 0c-15.36 0-35.84 5.12-40.96 10.24 0 0 0 0 0 0s0 0 0 0 0 0 0 0 0 0 0 0 0 0 0 0 0 0 0 0 0 0 0 0 0 0 0 0 0 0 0 0 0 0 0 0 0 0 0 0 0 0 0 0 0 0 0 0 0 0 0 0 0 0 0 0 0 0 0 0 0 0 0 0 0 0 0 0 0 0 0 0 0 0 0 0c-40.96-10.24-66.56-15.36-87.040-10.24 0 0 0 0 0 0-15.36 0-30.72 5.12-35.84 10.24 0 0 0 0 0 0s0 0 0 0 0 0 0 0 0 0 0 0 0 0 0 0 0 0 0 0 0 0 0 0 0 0 0 0 0 0 0 0 0 0 0 0 0 0 0 0 0 0 0 0 0 0 0 0 0 0 0 0 0 0 0 0 0 0 0 0 0 0 0 0 0 0 0 0 0 0 0 0 0 0 0 0c-30.72-5.12-46.080-10.24-61.44-10.24 0 0 0 0 0 0-5.12 0-10.24 0-15.36 0 0 0 0 0 0 0-15.36 0-30.72 5.12-40.96 10.24 0 0 0 0 0 0s0 0 0 0 0 0 0 0 0 0 0 0 0 0 0 0 0 0 0 0 0 0 0 0 0 0 0 0 0 0 0 0 0 0 0 0 0 0 0 0 0 0 0 0 0 0 0 0 0 0 0 0 0 0 0 0 0 0 0 0 0 0 0 0 0 0 0 0 0 0 0 0 0 0 0 0c-30.72-10.24-61.44-15.36-76.8-10.24-10.24 0-15.36-5.12-15.36-15.36 0-5.12 5.12-15.36 15.36-15.36v0zM10.24 382.72c15.36-5.12 51.2-20.48 61.44-30.72 0 0 0 0 0 0s0 0 0 0 0 0 0 0 0 0 5.12 0c0 0 0 0 0 0s5.12 0 5.12 0c0 0 0 0 0 0s0 0 0 0 5.12 0 5.12 0c0 0 0 0 0 0s5.12 0 5.12 0c0 0 0 0 0 0s0 0 0 0 0 0 0 0c15.36 10.24 46.080 25.6 61.44 30.72 5.12 0 10.24 10.24 10.24 15.36s-10.24 10.24-15.36 10.24c-5.12 0-40.96-10.24-66.56-30.72-20.48 20.48-56.32 30.72-61.44 30.72s-15.36 0-15.36-10.24c-5.12-5.12 0-15.36 5.12-15.36v0zM184.32 321.28c-5.12 0-40.96-10.24-61.44-30.72-25.6 20.48-61.44 30.72-66.56 30.72-5.12 5.12-15.36 0-15.36-5.12s0-15.36 10.24-15.36c15.36-10.24 51.2-25.6 61.44-35.84 0 0 0 0 0 0s0 0 0 0 0 0 0 0 0 0 5.12 0c0 0 0 0 0 0s5.12 0 5.12 0c0 0 0 0 0 0v0c0 0 5.12 0 5.12 0s0 0 0 0 5.12 0 5.12 0c0 0 0 0 0 0s0 0 0 0 0 0 0 0c10.24 10.24 40.96 25.6 61.44 30.72 5.12 0 10.24 10.24 10.24 20.48-5.12 5.12-10.24 10.24-20.48 5.12v0zM496.64 80.64c-15.36 0-46.080 0-56.32 10.24 0 0 0 0 0 0s0 0 0 0 0 0 0 0 0 0 0 0 0 0 0 0 0 0 0 0 0 0 0 0 0 0 0 0 0 0 0 0 0 0 0 0 0 0 0 0 0 0 0 0 0 0 0 0 0 0 0 0 0 0 0 0 0 0 0 0 0 0 0 0 0 0 0 0 0 0 0 0 0 0 0 0c-25.6-10.24-40.96-10.24-56.32-10.24 0 0 0 0 0 0-5.12 0-10.24 0-10.24 0s0 0 0 0c-15.36 0-35.84 5.12-40.96 10.24 0 0 0 0 0 0s0 0 0 0 0 0 0 0 0 0 0 0 0 0 0 0 0 0 0 0 0 0 0 0 0 0 0 0 0 0 0 0 0 0 0 0 0 0 0 0 0 0 0 0 0 0 0 0 0 0 0 0 0 0 0 0 0 0 0 0 0 0 0 0 0 0 0 0 0 0 0 0 0 0 0 0c-40.96-10.24-66.56-15.36-87.040-10.24 0 0 0 0 0 0-15.36 0-30.72 5.12-35.84 10.24 0 0 0 0 0 0s0 0 0 0 0 0 0 0 0 0 0 0 0 0 0 0 0 0 0 0 0 0 0 0 0 0 0 0 0 0 0 0 0 0 0 0 0 0 0 0 0 0 0 0 0 0 0 0 0 0 0 0 0 0 0 0 0 0 0 0 0 0 0 0 0 0 0 0 0 0 0 0 0 0 0 0c-30.72-10.24-46.080-10.24-61.44-10.24 0 0 0 0 0 0-5.12 0-10.24 0-15.36 0 0 0 0 0 0 0-15.36 0-30.72 5.12-40.96 10.24 0 0 0 0 0 0s0 0 0 0 0 0 0 0 0 0 0 0 0 0 0 0 0 0 0 0 0 0 0 0 0 0 0 0 0 0 0 0 0 0 0 0 0 0 0 0 0 0 0 0 0 0 0 0 0 0 0 0 0 0 0 0 0 0 0 0 0 0 0 0 0 0 0 0 0 0 0 0 0 0 0 0c-30.72-10.24-61.44-15.36-76.8-10.24-10.24 0-15.36-5.12-15.36-15.36s5.12-15.36 15.36-15.36c0 0 5.12 0 10.24 0 15.36 0 40.96 0 56.32 15.36 15.36-10.24 30.72-10.24 46.080-10.24 0 0 0 0 0 0s5.12 0 10.24 0c15.36 0 40.96 0 56.32 15.36 20.48-20.48 46.080-20.48 61.44-20.48 5.12 0 10.24 0 10.24 0s0 0 0 0c15.36 0 30.72 5.12 46.080 10.24 15.36-5.12 35.84-10.24 46.080-10.24 0 0 0 0 0 0s5.12 0 10.24 0c15.36 0 40.96 0 56.32 15.36 15.36-10.24 40.96-15.36 56.32-15.36 5.12 0 10.24 0 10.24 0 10.24 0 15.36 5.12 15.36 15.36s-5.12 15.36-10.24 15.36v0zM496.64 14.080c-15.36 0-46.080 0-56.32 10.24 0 0 0 0 0 0s0 0 0 0 0 0 0 0 0 0 0 0 0 0 0 0 0 0 0 0 0 0 0 0 0 0 0 0 0 0 0 0 0 0 0 0 0 0 0 0 0 0 0 0 0 0 0 0 0 0 0 0 0 0 0 0 0 0 0 0 0 0 0 0 0 0 0 0 0 0 0 0 0 0 0 0c-25.6-10.24-40.96-10.24-56.32-10.24 0 0 0 0 0 0-5.12 0-10.24 0-10.24 0s0 0 0 0c-15.36 0-35.84 5.12-40.96 10.24 0 0 0 0 0 0s0 0 0 0 0 0 0 0 0 0 0 0 0 0 0 0 0 0 0 0 0 0 0 0 0 0 0 0 0 0 0 0 0 0 0 0 0 0 0 0 0 0 0 0 0 0 0 0 0 0 0 0 0 0 0 0 0 0 0 0 0 0 0 0 0 0 0 0 0 0 0 0 0 0 0 0c-40.96-10.24-66.56-15.36-87.040-10.24 0 0 0 0-5.12 0-15.36 0-30.72 5.12-35.84 10.24 0 0 0 0 0 0s0 0 0 0 0 0 0 0 0 0 0 0 0 0 0 0 0 0 0 0 0 0 0 0 0 0 0 0 0 0 0 0 0 0 0 0 0 0 0 0 0 0 0 0 0 0 0 0 0 0 0 0 0 0 0 0 0 0 0 0 0 0 0 0 0 0 0 0 0 0 0 0 0 0 0 0c-25.6-10.24-40.96-10.24-56.32-10.24 0 0 0 0 0 0-5.12 0-10.24 0-15.36 0 0 0 0 0 0 0-15.36 0-30.72 5.12-40.96 10.24 0 0 0 0 0 0s0 0 0 0 0 0 0 0 0 0 0 0 0 0 0 0 0 0 0 0 0 0 0 0 0 0 0 0 0 0 0 0 0 0 0 0 0 0 0 0 0 0 0 0 0 0 0 0 0 0 0 0 0 0 0 0 0 0 0 0 0 0 0 0 0 0 0 0 0 0 0 0 0 0 0 0c-30.72-10.24-61.44-15.36-76.8-10.24-10.24 0-15.36-5.12-15.36-15.36s5.12-15.36 15.36-15.36c0 0 5.12 0 10.24 0 15.36 0 40.96 0 56.32 15.36 15.36-10.24 30.72-10.24 46.080-10.24 0 0 0 0 0 0s5.12 0 10.24 0c15.36 0 40.96 0 56.32 15.36 20.48-20.48 46.080-20.48 61.44-20.48 5.12 0 10.24 0 10.24 0s0 0 0 0c15.36 0 30.72 5.12 46.080 10.24 15.36-5.12 35.84-10.24 46.080-10.24 0 0 0 0 0 0s5.12 0 10.24 0c15.36 0 40.96 0 56.32 15.36 15.36-10.24 40.96-15.36 56.32-15.36 5.12 0 10.24 0 10.24 0 10.24 0 15.36 5.12 15.36 15.36 5.12 10.24-5.12 15.36-10.24 15.36v0zM460.8 398.080l15.36 15.36c5.12 5.12 5.12 15.36 0 20.48s-15.36 5.12-20.48 0l-15.36-15.36c-10.24 10.24-20.48 10.24-30.72 15.36v20.48c0 10.24-5.12 15.36-15.36 15.36s-15.36-5.12-15.36-15.36v-20.48c-15.36-5.12-25.6-5.12-35.84-15.36l-15.36 15.36c-5.12 5.12-10.24 5.12-20.48 0-5.12-5.12-5.12-15.36 0-20.48l15.36-15.36c-5.12-10.24-10.24-20.48-10.24-35.84h-25.6c-10.24 0-15.36-5.12-15.36-15.36s5.12-15.36 15.36-15.36h20.48c0-10.24 5.12-25.6 15.36-35.84l-15.36-10.24c-5.12-5.12-5.12-15.36 0-20.48s5.12-5.12 10.24-5.12 5.12 0 10.24 5.12l15.36 15.36c10.24-5.12 20.48-10.24 35.84-15.36v-20.48c0-10.24 5.12-15.36 15.36-15.36 5.12 5.12 15.36 10.24 15.36 15.36v20.48c10.24 0 25.6 5.12 35.84 15.36l15.36-15.36c0 0 0 0 5.12 0s5.12 0 10.24 5.12 5.12 15.36 0 20.48l-15.36 10.24c5.12 10.24 10.24 20.48 15.36 35.84h20.48c10.24 0 15.36 5.12 15.36 15.36s-5.12 15.36-15.36 15.36h-20.48c0 10.24-5.12 20.48-15.36 30.72v0zM337.92 352c0 30.72 25.6 56.32 56.32 56.32s56.32-25.6 56.32-56.32c0-30.72-25.6-56.32-56.32-56.32s-56.32 25.6-56.32 56.32v0z" />
<glyph unicode="&#xe63f;" d="M378.88 474.88c0 5.12-5.12 5.12-5.12 5.12h-240.64c-5.12 0-5.12 0-10.24-5.12-5.12-10.24-112.64-189.44-51.2-296.96 25.6-46.080 81.92-66.56 158.72-66.56 5.12 0 10.24 0 15.36 0 0 0 0 0 5.12 0v-71.68l-87.040-51.2c-5.12 0-5.12-5.12-5.12-10.24s5.12-5.12 10.24-5.12h179.2c10.24-5.12 10.24 0 15.36 0 0 5.12 0 10.24-5.12 10.24l-87.040 51.2v76.8c0 0 0 0 5.12 0 46.080 0 128 10.24 163.84 71.68s15.36 158.72-61.44 291.84zM317.44-11.52h-112.64l56.32 30.72 56.32-30.72zM424.96 193.28c-35.84-56.32-107.52-66.56-148.48-66.56-15.36 0-25.6 0-25.6 0 5.12 0 0 0 0 0s0 0 0 0c-5.12 0-5.12 0-10.24 0-71.68 0-122.88 20.48-148.48 61.44-51.2 87.040 30.72 240.64 46.080 271.36h225.28c71.68-122.88 92.16-209.92 61.44-266.24zM240.64 147.2c0 0 220.16-25.6 158.72 179.2h-291.84c0 0-56.32-168.96 133.12-179.2zM138.24 285.44c5.12 0 10.24-5.12 10.24-10.24 0-35.84 15.36-61.44 30.72-61.44 5.12 0 10.24-5.12 10.24-10.24s-5.12-10.24-10.24-10.24c-25.6 0-51.2 35.84-51.2 81.92 0 5.12 5.12 10.24 10.24 10.24z" />
<glyph unicode="&#xe640;" d="M40.96 96h-40.96v133.12c0 15.36 5.12 25.6 15.36 35.84s20.48 20.48 30.72 20.48l46.080 112.64c10.24 25.6 20.48 30.72 40.96 30.72h240.64c20.48 0 35.84-5.12 46.080-25.6l46.080-112.64c15.36-5.12 25.6-10.24 30.72-20.48 10.24-15.36 15.36-25.6 15.36-40.96v0-133.12h-40.96v-40.96c0-10.24-5.12-20.48-10.24-30.72-10.24-5.12-20.48-5.12-30.72-5.12s-20.48 0-25.6 10.24c-10.24 5.12-15.36 15.36-15.36 30.72v35.84h-266.24v-40.96c0-10.24-5.12-20.48-10.24-30.72-10.24-5.12-20.48-5.12-30.72-5.12s-20.48 0-30.72 10.24c-5.12 5.12-10.24 15.36-10.24 30.72v35.84zM56.32 239.36c-10.24-5.12-15.36-15.36-15.36-25.6s5.12-20.48 10.24-30.72c10.24-10.24 20.48-10.24 30.72-10.24 15.36 0 20.48 0 30.72 10.24s10.24 15.36 10.24 30.72c0 10.24-5.12 20.48-10.24 30.72-10.24 5.12-15.36 10.24-30.72 10.24-10.24 0-20.48-5.12-25.6-15.36zM76.8 290.56h363.52l-40.96 102.4c0 5.12-5.12 10.24-15.36 10.24h-250.88c-5.12 0-10.24-5.12-10.24-10.24l-46.080-102.4zM455.68 239.36c-10.24 10.24-20.48 15.36-30.72 15.36s-20.48-5.12-30.72-10.24c-5.12-10.24-10.24-20.48-10.24-30.72s5.12-20.48 10.24-30.72c10.24-10.24 20.48-10.24 30.72-10.24s20.48 0 30.72 10.24c5.12 10.24 10.24 15.36 10.24 30.72 0 10.24-5.12 20.48-10.24 25.6zM225.28 311.040c0 10.24-25.6 15.36-30.72 20.48 0 0 0 5.12 0 5.12 5.12 0 10.24 10.24 10.24 20.48 0 15.36-10.24 30.72-25.6 30.72-15.36-5.12-25.6-15.36-25.6-30.72 0-10.24 5.12-20.48 10.24-25.6 0 0 0 0 0-5.12-5.12 0-30.72-10.24-35.84-15.36h97.28c0 0 0 0 0 0zM384 311.040c-5.12 10.24-30.72 15.36-35.84 20.48 0 0 0 5.12 0 5.12 5.12 0 10.24 10.24 10.24 20.48 0 15.36-10.24 30.72-25.6 30.72-15.36-5.12-25.6-15.36-25.6-30.72 0-10.24 5.12-20.48 10.24-25.6 0 0 0 0 0-5.12 0 0-30.72-10.24-30.72-15.36h97.28c0 0 0 0 0 0z" />
<glyph unicode="&#xe641;" d="M10.24 19.2c-10.24-5.12-10.24-25.6 0-30.72l10.24-10.24c10.24-10.24 25.6-10.24 35.84 0l71.68 66.56-51.2 46.080-66.56-71.68zM471.040 439.040c-25.6 30.72-61.44 40.96-102.4 40.96-30.72 0-66.56-10.24-102.4-30.72 10.24-10.24 15.36-25.6 15.36-40.96 0-5.12 0-5.12 0-10.24 0 0 0 0 0 0 25.6 20.48 56.32 30.72 87.040 30.72 20.48 0 46.080-5.12 66.56-25.6s30.72-51.2 25.6-87.040c-10.24-35.84-30.72-76.8-61.44-107.52-35.84-35.84-81.92-61.44-128-61.44-15.36 0-46.080 5.12-66.56 25.6-20.48 25.6-25.6 61.44-15.36 97.28 0 0 0 5.12 0 5.12-5.12 0-10.24 0-15.36 0 0 0-5.12 0-5.12 0-10.24 0-20.48 0-30.72 5.12 0 0 0-5.12 0-5.12-5.12-20.48-5.12-40.96 0-56.32 0-35.84-5.12-92.16-30.72-112.64l25.6-25.6c20.48 20.48 71.68 25.6 107.52 25.6 10.24 0 20.48-5.12 30.72-5.12 56.32 0 112.64 25.6 163.84 76.8 87.040 76.8 97.28 194.56 35.84 261.12zM112.64 316.16c15.36-10.24 30.72-15.36 51.2-15.36s35.84 5.12 51.2 15.36c-10.24 10.24-25.6 35.84-25.6 71.68s10.24 61.44 25.6 76.8c-15.36 10.24-30.72 15.36-51.2 15.36s-35.84-5.12-51.2-15.36c10.24-15.36 25.6-40.96 25.6-76.8s-10.24-56.32-25.6-71.68zM230.4 326.4c15.36 20.48 25.6 40.96 25.6 61.44 0 25.6-10.24 46.080-20.48 61.44-15.36-10.24-25.6-30.72-25.6-61.44s10.24-51.2 20.48-61.44zM117.76 387.84c0 30.72-10.24 51.2-20.48 61.44-10.24-15.36-20.48-35.84-20.48-61.44 0-20.48 10.24-40.96 20.48-61.44 10.24 10.24 20.48 30.72 20.48 61.44z" />
<glyph unicode="&#xe642;" d="M491.52 49.92c0 0-76.8 0-174.080 0v-40.96c40.96 0 71.68 0 71.68 0 30.72 0 40.96 0 61.44 0h46.080c15.36 0 15.36 10.24 15.36 10.24v15.36c0 0 0 15.36-20.48 15.36zM471.040 60.16c25.6 0 40.96 20.48 40.96 40.96 0 25.6-20.48 40.96-40.96 40.96-25.6 0-40.96-20.48-40.96-40.96-5.12-20.48 15.36-40.96 40.96-40.96zM378.88 60.16c20.48 0 40.96 20.48 40.96 40.96s-15.36 35.84-40.96 35.84l-56.32-5.12v-71.68h56.32zM189.44 341.76c25.6 0 46.080 20.48 46.080 46.080s-20.48 46.080-46.080 46.080c-25.6 0-46.080-20.48-46.080-46.080-5.12-25.6 15.36-46.080 46.080-46.080zM138.24 188.16c0 0 0 0 0 0l-20.48 51.2v-97.28h66.56l15.36 15.36-40.96 10.24c-10.24 5.12-15.36 10.24-20.48 20.48zM153.6 193.28c0-5.12 5.12-10.24 10.24-10.24l71.68-25.6c10.24-5.12 20.48 0 25.6 10.24s0 20.48-10.24 25.6l-66.56 20.48-20.48 51.2 15.36 5.12 15.36-40.96 51.2-20.48v51.2l25.6-15.36 15.36-66.56c5.12-10.24 15.36-15.36 25.6-10.24s15.36 15.36 10.24 25.6l-15.36 61.44c0 5.12-5.12 5.12-5.12 10.24-10.24 10.24-46.080 51.2-51.2 56.32-5.12 0-15.36 5.12-30.72 5.12h-66.56c-35.84 0-40.96-35.84-35.84-51.2l35.84-81.92zM312.32 44.8c0 0 0-5.12 0-10.24v10.24zM312.32 131.84h-291.84c-10.24 0-20.48-10.24-20.48-20.48 0-5.12 0-10.24 0-10.24v-87.040c0 0 20.48 0 25.6 0h266.24c10.24 0 20.48 10.24 20.48 25.6 0 5.12 0 10.24 0 10.24v81.92z" />
<glyph unicode="&#xe643;" d="M168.96 418.56v-317.44c-15.36 5.12-35.84 0-56.32-5.12-46.080-15.36-61.44-56.32-51.2-92.16 10.24-30.72 46.080-46.080 92.16-30.72 35.84 15.36 61.44 46.080 61.44 76.8 0 0 0 168.96 0 261.12l189.44 46.080v-199.68c-15.36 5.12-35.84 0-56.32-5.12-46.080-15.36-61.44-56.32-51.2-92.16s46.080-46.080 92.16-30.72c35.84 15.36 61.44 46.080 61.44 76.8v373.76l-281.6-61.44z" />
<glyph unicode="&#xe644;" d="M343.040 167.68c0 10.24-15.36 20.48-25.6 20.48l-128-25.6-40.96 138.24c0 20.48-20.48 35.84-40.96 30.72s-30.72-25.6-25.6-40.96l40.96-143.36c0-10.24 10.24-20.48 20.48-25.6h-61.44c-10.24 0-20.48-10.24-20.48-20.48s10.24-20.48 20.48-20.48h174.080c10.24 0 20.48 10.24 20.48 20.48s-15.36 15.36-25.6 15.36h-71.68l122.88 20.48 30.72-148.48c0-10.24 10.24-20.48 20.48-20.48h5.12c10.24 0 20.48 15.36 20.48 25.6l-35.84 174.080zM148.48 413.44c0-36.76-29.8-66.56-66.56-66.56s-66.56 29.8-66.56 66.56c0 36.76 29.8 66.56 66.56 66.56s66.56-29.8 66.56-66.56zM296.96 275.2l5.12-5.12c15.36 10.24 25.6 20.48 30.72 30.72 5.12 15.36-10.24 30.72-20.48 40.96-15.36 20.48-35.84 40.96-10.24 61.44l-5.12 5.12c-15.36-10.24-25.6-20.48-30.72-35.84s10.24-30.72 20.48-46.080c20.48-20.48 30.72-35.84 10.24-51.2zM394.24 377.6l-5.12 5.12c-20.48-10.24-30.72-20.48-30.72-35.84-5.12-15.36 10.24-30.72 20.48-46.080 15.36-20.48 25.6-35.84 10.24-51.2l5.12-5.12c15.36 10.24 25.6 20.48 30.72 30.72 5.12 15.36-10.24 25.6-20.48 40.96-20.48 20.48-35.84 40.96-10.24 61.44zM471.040 392.96c-15.36 20.48-30.72 35.84-5.12 61.44l-5.12 5.12c-20.48-10.24-30.72-20.48-30.72-35.84-5.12-15.36 5.12-30.72 20.48-46.080 15.36-20.48 25.6-35.84 10.24-51.2l5.12-5.12c15.36 10.24 25.6 20.48 30.72 30.72 0 15.36-10.24 25.6-25.6 40.96z" />
<glyph unicode="&#xe645;" d="M322.56 157.44c0 25.6 15.36 51.2 35.84 61.44s46.080 5.12 61.44-15.36c5.12-5.12 10.24-10.24 15.36-5.12s5.12 10.24 5.12 20.48v102.4c0 15.36-10.24 25.6-25.6 25.6h-102.4c-25.6 0-35.84 30.72-15.36 46.080 25.6 35.84 10.24 87.040-40.96 87.040s-66.56-51.2-40.96-87.040c20.48-15.36 10.24-46.080-20.48-46.080h-102.4c-15.36 0-25.6-10.24-25.6-25.6v-102.4c0-5.12 5.12-15.36 10.24-20.48s15.36 0 20.48 5.12c15.36 20.48 40.96 25.6 61.44 15.36s35.84-30.72 35.84-61.44v0 0c0-25.6-15.36-51.2-35.84-61.44s-46.080 0-66.56 15.36c-5.12 5.12-10.24 5.12-15.36 5.12-5.12-5.12-10.24-10.24-10.24-20.48v-102.4c0-15.36 10.24-25.6 25.6-25.6h327.68c15.36 0 25.6 10.24 25.6 25.6v102.4c0 5.12 0 15.36-5.12 20.48s-10.24 0-20.48-5.12c-20.48-20.48-40.96-20.48-66.56-15.36-20.48 10.24-30.72 35.84-30.72 61.44v0 0z" />
<glyph unicode="&#xe646;" d="M404.48 433.92c0-25.6-20.48-46.080-46.080-46.080s-46.080 20.48-46.080 46.080c0 25.6 20.48 46.080 46.080 46.080s46.080-20.48 46.080-46.080zM389.12 131.84l-61.44 122.88c0 5.12-5.12 5.12-10.24 5.12l25.6 30.72c0 0 35.84 40.96 20.48 71.68-10.24 20.48-35.84 30.72-46.080 25.6v0c0 0-5.12 0-5.12 0l-117.76-25.6c-5.12 0-15.36-5.12-15.36-15.36-5.12-5.12 0-15.36 0-20.48l30.72-51.2v-15.36h-25.6c-5.12 0-5.12 0-10.24-5.12 0 0-25.6-30.72-5.12-71.68 10.24-15.36 35.84-40.96 51.2-61.44-15.36-5.12-30.72-20.48-46.080-35.84-10.24-10.24-10.24-20.48-10.24-25.6 5.12-40.96 66.56-81.92 76.8-92.16 0 0 5.12 0 5.12 0s5.12 0 5.12 0l97.28 46.080c5.12 0 10.24 5.12 10.24 5.12l30.72 102.4c0 5.12 0 5.12 0 10.24zM286.72 336.64l-30.72-20.48 30.72-51.2h-15.36l-35.84 61.44 51.2 10.24zM332.8 34.56l-81.92-40.96c-25.6 20.48-56.32 51.2-61.44 66.56 0 5.12 0 5.12 0 5.12 25.6 35.84 107.52 66.56 107.52 66.56 10.24 0 10.24 10.24 10.24 15.36-5.12 5.12-10.24 10.24-15.36 10.24l-46.080-20.48c-15.36 15.36-46.080 46.080-51.2 61.44-10.24 15.36-5.12 30.72 0 35.84h46.080l10.24-15.36c5.12-5.12 10.24-10.24 20.48-10.24 5.12 0 10.24 0 15.36 5.12s5.12 10.24 0 20.48h20.48l56.32-107.52-30.72-92.16zM276.48 75.52c-20.48 10.24-40.96 5.12-40.96 5.12-5.12 0-10.24-5.12-10.24-10.24s5.12-10.24 15.36-10.24c0 0 15.36 0 30.72-5.12s20.48-10.24 20.48-10.24l20.48 10.24c-5.12 5.12-10.24 15.36-35.84 20.48zM138.24 172.8c-5.12 20.48-5.12 40.96-5.12 46.080s-5.12 15.36-10.24 15.36c-5.12-5.12-10.24-10.24-15.36-15.36 0 0-5.12-30.72 5.12-51.2 10.24-25.6 25.6-40.96 25.6-46.080 0 0 5.12 0 10.24 0 0 0 5.12 0 5.12 0 5.12 5.12 5.12 10.24 0 15.36 5.12 5.12-5.12 15.36-15.36 35.84z" />
<glyph unicode="&#xe647;" d="M460.8 65.28h-71.68l-250.88 322.56c0 0-5.12 0-5.12 5.12v61.44c0 15.36-10.24 25.6-25.6 25.6h-81.92c-15.36 0-25.6-10.24-25.6-25.6v-486.4h25.6v61.44h87.040v-61.44h25.6v286.72l204.8-271.36c5.12-10.24 15.36-15.36 35.84-15.36h133.12v51.2c0 35.84-20.48 46.080-51.2 46.080zM10.24 454.4c0 10.24 5.12 10.24 10.24 10.24h87.040c10.24 0 10.24-5.12 10.24-10.24v-61.44h-107.52v61.44zM25.6 198.4h87.040v-71.68h-87.040v71.68zM25.6 39.68v76.8h87.040v-71.68h-87.040zM107.52 213.76h-81.92v71.68h87.040v-71.68z" />
<glyph unicode="&#xe648;" d="M40.96 188.16c15.36 0 30.72 10.24 40.96 15.36 20.48 15.36 25.6 20.48 40.96 5.12 10.24-10.24 25.6-20.48 35.84-20.48 15.36 0 30.72 10.24 40.96 15.36 20.48 10.24 25.6 15.36 40.96 0 15.36-10.24 30.72-15.36 40.96-15.36 15.36 0 30.72 10.24 40.96 15.36 20.48 10.24 25.6 15.36 40.96 0 10.24-10.24 25.6-20.48 35.84-20.48 15.36 0 30.72 10.24 40.96 15.36 20.48 10.24 25.6 15.36 40.96 0 5.12-5.12 15.36-5.12 20.48 0 10.24 15.36 10.24 20.48 5.12 25.6-10.24 15.36-25.6 20.48-35.84 20.48-15.36 0-30.72-10.24-40.96-15.36-20.48-15.36-25.6-20.48-40.96-5.12s-25.6 20.48-40.96 20.48c-15.36 0-30.72-10.24-40.96-15.36-15.36-15.36-25.6-20.48-40.96-5.12-10.24 15.36-25.6 20.48-35.84 20.48-15.36 0-30.72-10.24-40.96-15.36-20.48-15.36-30.72-20.48-46.080-5.12-10.24 15.36-25.6 20.48-35.84 20.48-15.36 0-30.72-10.24-40.96-15.36-20.48-15.36-25.6-20.48-40.96-5.12-5.12 5.12-15.36 5.12-20.48 0s-5.12-10.24 0-15.36c10.24-15.36 25.6-20.48 35.84-20.48zM40.96 96c15.36 0 30.72 10.24 40.96 15.36 20.48 10.24 25.6 15.36 40.96 0 10.24-10.24 25.6-20.48 35.84-20.48 15.36 0 30.72 10.24 40.96 15.36 20.48 10.24 25.6 15.36 40.96 0 15.36-5.12 30.72-10.24 40.96-10.24 15.36 0 30.72 10.24 40.96 15.36 20.48 10.24 25.6 15.36 40.96 0 10.24-10.24 25.6-20.48 35.84-20.48 15.36 0 30.72 10.24 40.96 15.36 20.48 10.24 25.6 15.36 40.96 0 5.12-5.12 15.36-5.12 20.48 0 10.24 15.36 10.24 20.48 5.12 25.6-10.24 15.36-25.6 20.48-35.84 20.48-15.36 0-30.72-10.24-40.96-15.36-20.48-15.36-25.6-20.48-40.96-5.12s-25.6 20.48-40.96 20.48c-15.36 0-30.72-10.24-40.96-15.36-15.36-15.36-25.6-20.48-40.96-5.12-10.24 15.36-25.6 20.48-35.84 20.48-15.36 0-30.72-10.24-40.96-15.36-20.48-15.36-30.72-20.48-46.080-5.12-10.24 15.36-25.6 20.48-35.84 20.48-15.36 0-30.72-10.24-40.96-15.36-20.48-15.36-25.6-20.48-40.96-5.12-5.12 5.12-15.36 5.12-20.48 0-5.12 0-5.12-5.12-5.12-10.24 0 0 0-5.12 5.12-5.12 10.24-15.36 25.6-20.48 35.84-20.48zM471.040 60.16c-15.36 0-30.72-10.24-40.96-15.36-20.48-15.36-25.6-20.48-40.96-5.12s-25.6 20.48-40.96 20.48c-15.36 0-30.72-10.24-40.96-15.36-20.48-10.24-25.6-15.36-40.96 0-10.24 10.24-25.6 15.36-35.84 15.36-15.36 0-30.72-10.24-40.96-15.36-20.48-10.24-25.6-15.36-40.96 0-15.36 10.24-30.72 15.36-40.96 15.36-15.36 0-30.72-10.24-40.96-15.36-20.48-10.24-25.6-15.36-40.96 0-5.12 5.12-15.36 5.12-20.48 0s-5.12-10.24-5.12-15.36c0 0 0-5.12 5.12-10.24 10.24-10.24 25.6-20.48 35.84-20.48 15.36 0 30.72 10.24 40.96 15.36 20.48 20.48 25.6 20.48 40.96 5.12 10.24-10.24 25.6-20.48 35.84-20.48 20.48 5.12 35.84 15.36 46.080 20.48 20.48 10.24 25.6 15.36 40.96 0 10.24-10.24 25.6-15.36 35.84-15.36 15.36 0 30.72 10.24 40.96 15.36 20.48 10.24 25.6 15.36 40.96 0 10.24-10.24 25.6-20.48 35.84-20.48 15.36 0 30.72 10.24 40.96 15.36 20.48 10.24 25.6 15.36 40.96 0 5.12-5.12 15.36-5.12 20.48 0s5.12 15.36 0 20.48c-5.12 20.48-20.48 25.6-30.72 25.6zM312.32 244.48c5.12 0 15.36 5.12 15.36 15.36v15.36h81.92v-20.48c0-5.12 5.12-15.36 15.36-15.36 5.12 0 15.36 5.12 15.36 15.36v102.4c0 30.72 25.6 56.32 61.44 56.32 5.12 0 15.36 5.12 15.36 15.36s-15.36 15.36-25.6 15.36c-40.96 0-76.8-30.72-81.92-71.68h-81.92c5.12 25.6 25.6 46.080 56.32 46.080 5.12 0 15.36 5.12 15.36 15.36s-10.24 10.24-15.36 10.24c-46.080 0-87.040-35.84-87.040-81.92v-102.4c0-10.24 5.12-15.36 15.36-15.36zM409.6 305.92h-87.040v35.84h87.040v-35.84z" />
<glyph unicode="&#xe649;" d="M209.92 229.12c0-14.139-11.462-25.6-25.6-25.6s-25.6 11.462-25.6 25.6c0 14.138 11.462 25.6 25.6 25.6s25.6-11.462 25.6-25.6zM363.52 229.12c0-14.139-11.462-25.6-25.6-25.6s-25.6 11.462-25.6 25.6c0 14.138 11.462 25.6 25.6 25.6s25.6-11.462 25.6-25.6zM256 193.28c-15.36 0-40.96-5.12-40.96-20.48 0-20.48 35.84-40.96 40.96-40.96v0 0c5.12 0 40.96 20.48 40.96 40.96 0 15.36-20.48 20.48-40.96 20.48zM496.64 131.84l-40.96 5.12c5.12 5.12 5.12 10.24 5.12 15.36v0l30.72-5.12c10.24 0 15.36 5.12 15.36 15.36 0 5.12 0 10.24-5.12 10.24s0 5.12-5.12 5.12l-30.72 5.12c0 5.12 0 15.36 0 20.48 0 35.84-25.6 112.64-30.72 138.24-5.12 20.48-10.24 30.72-20.48 46.080-5.12 5.12-10.24 10.24-15.36 20.48 0 5.12-5.12 5.12-10.24 5.12v0c-5.12 0-10.24 0-10.24-5.12-20.48-20.48-40.96-40.96-51.2-40.96-5.12 0-10.24 0-20.48 0v0c-15.36 0-30.72 5.12-51.2 5.12-15.36 0-30.72 0-46.080-5.12-10.24 0-15.36 0-20.48 0-15.36 0-35.84 25.6-46.080 40.96 0 5.12-5.12 5.12-15.36 5.12-5.12 0-10.24-5.12-15.36-5.12-10.24-25.6-20.48-40.96-30.72-66.56s-30.72-102.4-30.72-138.24c0-5.12 0-15.36 0-20.48v0l-35.84-5.12c-5.12 0-10.24-5.12-10.24-5.12-5.12-5.12-5.12-10.24-5.12-15.36 0-10.24 10.24-15.36 15.36-15.36l40.96 5.12c0-5.12 0-5.12 5.12-10.24v0l-51.2-10.24c-5.12 5.12-10.24-5.12-10.24-10.24 0-10.24 10.24-15.36 15.36-15.36l61.44 10.24c35.84-51.2 102.4-76.8 179.2-76.8s143.36 30.72 179.2 76.8v0 0l51.2-10.24c10.24 0 15.36 5.12 15.36 15.36 10.24 5.12 5.12 15.36-5.12 15.36zM440.32 188.16v0l-40.96 5.12c-10.24 0-15.36-5.12-15.36-15.36s5.12-15.36 15.36-15.36l35.84-5.12c0-5.12 0-5.12-5.12-10.24v0h-30.72c-10.24 0-15.36-5.12-15.36-15.36s5.12-15.36 15.36-15.36h10.24c-30.72-30.72-81.92-51.2-143.36-51.2s-112.64 20.48-143.36 51.2v0h5.12c10.24 0 15.36 10.24 15.36 15.36 0 10.24-10.24 15.36-15.36 15.36h-30.72c0 5.12-5.12 5.12-5.12 10.24v0l30.72 5.12c10.24 0 15.36 10.24 15.36 15.36 0 10.24-10.24 15.36-15.36 15.36l-40.96-5.12c0 5.12 0 10.24 0 15.36 0 25.6 20.48 97.28 30.72 122.88 5.12 15.36 10.24 25.6 20.48 40.96v0 0c15.36-15.36 35.84-30.72 56.32-30.72 5.12 0 15.36 0 25.6 0v0c10.24 0 25.6 5.12 40.96 5.12s35.84 0 51.2-5.12v0c10.24 0 15.36 0 20.48 0 20.48 0 40.96 20.48 56.32 35.84v0-5.12c10.24-10.24 20.48-20.48 25.6-35.84 10.24-25.6 30.72-97.28 30.72-122.88 0-10.24 0-15.36 0-20.48z" />
<glyph unicode="&#xe64a;" d="M15.36 142.080h20.48c5.12 107.52 92.16 194.56 204.8 204.8 0 0 0 0 0 0v10.24c0 10.24 5.12 15.36 15.36 15.36s15.36-5.12 15.36-15.36v-10.24c0 0 0 0 0 0 107.52-5.12 194.56-92.16 204.8-204.8h20.48c10.24 0 15.36-5.12 15.36-15.36s-10.24-15.36-20.48-15.36h-476.16c-10.24 0-15.36 10.24-15.36 15.36s5.12 15.36 15.36 15.36zM92.16 157.44c0 0 0 0 0 0 10.24 0 15.36 5.12 20.48 10.24 5.12 30.72 20.48 56.32 40.96 76.8 5.12 5.12 5.12 15.36 0 20.48-5.12 10.24-15.36 10.24-20.48 5.12-25.6-25.6-46.080-61.44-56.32-97.28 0-5.12 5.12-15.36 15.36-15.36zM465.92 336.64c0 0-5.12 5.12 0 0h-122.88c0 0-5.12 0-5.12 0 0-5.12-56.32-97.28-25.6-148.48 15.36-20.48 40.96-35.84 76.8-35.84 0 0 5.12 0 10.24 0 0 0 0 0 0 0v-30.72l-40.96-25.6c0 0-5.12-5.12 0-5.12 0 0 0-5.12 5.12-5.12h92.16c0 0 5.12 0 5.12 5.12 0 0 0 5.12 0 5.12l-51.2 25.6v35.84c0 0 0 0 0 0v0c20.48 0 61.44 5.12 81.92 35.84s10.24 76.8-25.6 143.36zM450.56 75.52h-87.040c-5.12 0-10.24 5.12-15.36 10.24 0 5.12 0 10.24 5.12 15.36l40.96 25.6v20.48c-46.080 0-76.8 15.36-87.040 40.96-30.72 56.32 20.48 143.36 25.6 153.6 0 5.12 5.12 5.12 10.24 5.12h117.76c5.12 0 10.24-5.12 10.24-5.12 40.96-66.56 51.2-117.76 30.72-153.6-20.48-30.72-56.32-40.96-81.92-40.96v-20.48l35.84-25.6c5.12 0 10.24-10.24 10.24-15.36-5.12-5.12-10.24-10.24-15.36-10.24zM373.76 96h66.56l-35.84 15.36-30.72-15.36zM404.48 162.56h5.12c20.48 0 61.44 5.12 76.8 30.72 15.36 30.72 10.24 76.8-25.6 138.24h-117.76c-5.12-15.36-51.2-92.16-25.6-138.24 15.36-20.48 35.84-30.72 76.8-30.72 0 0 0 0 10.24 0v0 0zM414.72 157.44v0c-5.12 0-10.24 0-15.36 0s-5.12 0-10.24 0c-40.96 0-66.56 10.24-76.8 35.84-30.72 51.2 25.6 143.36 25.6 148.48 0 0 0 0 5.12 0h117.76c0 0 5.12 0 5.12 0 35.84-71.68 46.080-117.76 30.72-148.48-20.48-30.72-61.44-35.84-81.92-35.84zM399.36 167.68c0 0 5.12 0 0 0 0 0 5.12 0 15.36 0v0c20.48 0 56.32 5.12 71.68 30.72s5.12 71.68-25.6 133.12h-112.64c-10.24-15.36-51.2-92.16-25.6-133.12 10.24-20.48 35.84-30.72 71.68-30.72 5.12 0 5.12 0 5.12 0s0 0 0 0zM450.56 85.76h-87.040c0 0-5.12 0-5.12 5.12 0 0 0 5.12 0 5.12l40.96 25.6v35.84c0 5.12 0 5.12 5.12 5.12s5.12 0 5.12-5.12v-35.84l40.96-25.6c5.12 0 5.12-5.12 0-10.24 5.12 0 5.12 0 0 0zM378.88 96h56.32l-30.72 15.36-25.6-15.36zM476.16 264.96h-143.36c0 0-30.72-87.040 66.56-92.16-5.12 0 107.52-10.24 76.8 92.16zM363.52 198.4c-15.36 0-25.6 15.36-25.6 40.96 0 5.12 0 5.12 5.12 5.12s5.12 0 5.12-5.12c0-15.36 10.24-30.72 15.36-30.72s5.12 0 0-10.24c5.12 0 5.12 0 0 0z" />
<glyph unicode="&#xe64b;" d="M496.64 121.6h-20.48c-5.12 112.64-97.28 199.68-204.8 204.8 0 0 0 0 0 0v10.24c0 10.24-5.12 15.36-15.36 15.36s-15.36-5.12-15.36-15.36v-10.24c0 0 0 0 0 0-112.64-5.12-199.68-97.28-204.8-204.8h-20.48c-10.24 0-15.36-5.12-15.36-10.24s5.12-15.36 15.36-15.36h481.28c10.24 0 15.36 5.12 15.36 15.36s-5.12 10.24-15.36 10.24zM419.84 136.96c0 0 0 0 0 0-10.24 0-15.36 5.12-15.36 10.24-10.24 30.72-25.6 61.44-51.2 81.92-5.12 5.12-5.12 15.36 0 20.48s15.36 5.12 20.48 0c30.72-25.6 51.2-56.32 56.32-92.16 5.12-10.24 0-20.48-10.24-20.48z" />
<glyph unicode="&#xe64c;" d="M430.080 259.84v40.96c0 0-10.24 0-35.84 0v56.32c0 0-25.6 0-35.84 0-20.48 0-30.72-30.72-30.72-30.72l-5.12-25.6c-51.2 0-102.4 0-117.76 0-30.72 0-35.84-25.6-35.84-35.84 0-5.12 0-5.12 0-5.12h-168.96c15.36-56.32 46.080-92.16 87.040-122.88 5.12 0 5.12 0 10.24 5.12 5.12 0 20.48 10.24 40.96 10.24s35.84-10.24 46.080-15.36c5.12-5.12 10.24-5.12 15.36-5.12s10.24 0 15.36 5.12c5.12 5.12 20.48 15.36 40.96 15.36s35.84-10.24 46.080-15.36c5.12-5.12 5.12-5.12 15.36-5.12 5.12 0 10.24 0 15.36 5.12 10.24 5.12 20.48 15.36 46.080 15.36s30.72-10.24 40.96-15.36c5.12 0 5.12-5.12 10.24-5.12 35.84 30.72 66.56 81.92 81.92 128h-81.92zM230.4 259.84v-25.6h-30.72v30.72h5.12l25.6-5.12zM286.72 259.84v-25.6h-35.84v30.72h5.12l30.72-5.12zM343.040 259.84v-25.6h-30.72v30.72h5.12l25.6-5.12zM399.36 259.84v-25.6h-30.72v30.72h5.12l25.6-5.12zM286.72 259.84v0 0c0 5.12 0 0 0 0zM256 264.96v0 0c-5.12-5.12-5.12 0 0 0zM281.6 234.24v0 0c5.12 0 5.12 0 0 0zM250.88 234.24v0 0c0 0 0 0 0 0zM312.32 234.24v0 0c0 0 0 0 0 0zM317.44 264.96v0 0c-5.12-5.12-5.12 0 0 0zM337.92 234.24v0 0c5.12 0 5.12 0 0 0zM343.040 259.84v0 0c0 5.12 0 0 0 0zM225.28 234.24v0 0c5.12 0 5.12 0 0 0zM230.4 259.84v0 0c0 5.12 0 0 0 0zM199.68 234.24v0 0c0 0 0 0 0 0zM204.8 264.96v0 0c-5.12-5.12-5.12 0 0 0zM399.36 259.84v0 0c0 5.12 0 0 0 0zM368.64 234.24v0 0c0 0 0 0 0 0zM394.24 234.24v0 0c5.12 0 5.12 0 0 0zM373.76 264.96v0 0c-5.12-5.12-5.12 0 0 0zM430.080 116.48c-10.24 0-15.36 0-20.48 5.12-10.24 5.12-15.36 10.24-35.84 10.24s-25.6-5.12-35.84-10.24c-5.12-5.12-10.24-5.12-20.48-5.12-15.36 0-20.48 0-25.6 5.12s-15.36 10.24-35.84 10.24c-15.36 0-25.6-5.12-35.84-10.24-5.12-5.12-10.24-5.12-20.48-5.12s-15.36 0-25.6 5.12c-5.12 5.12-15.36 10.24-35.84 10.24-15.36 0-25.6-5.12-35.84-10.24-5.12-5.12-10.24-5.12-20.48-5.12-5.12 0-10.24-5.12-10.24-10.24s5.12-10.24 10.24-10.24c20.48 0 25.6 5.12 35.84 10.24 5.12 5.12 10.24 10.24 20.48 10.24s15.36-5.12 25.6-10.24c10.24-5.12 15.36-10.24 35.84-10.24s25.6 5.12 35.84 10.24c5.12 0 10.24 5.12 20.48 5.12s15.36-5.12 25.6-10.24c10.24-5.12 15.36-10.24 35.84-10.24 15.36 0 25.6 5.12 35.84 10.24 5.12 5.12 10.24 10.24 20.48 10.24s15.36-5.12 25.6-10.24c10.24-5.12 15.36-10.24 35.84-10.24 5.12 0 10.24 5.12 10.24 10.24s-5.12 15.36-15.36 15.36z" />
<glyph unicode="&#xe64d;" d="M199.68 398.080c10.24 0 20.48 5.12 25.6 10.24s10.24 15.36 10.24 25.6-5.12 20.48-10.24 25.6c-5.12 5.12-15.36 10.24-25.6 10.24s-20.48-5.12-25.6-10.24c-5.12-5.12-10.24-15.36-10.24-25.6s5.12-15.36 10.24-25.6c5.12-5.12 15.36-10.24 25.6-10.24v0zM512 326.4c0 5.12-5.12 10.24-10.24 15.36l-71.68 46.080 5.12 35.84-148.48-148.48h-51.2v35.84l46.080-10.24c5.12 0 10.24 0 10.24 5.12 5.12 0 5.12 5.12 10.24 10.24 0 5.12 0 10.24 0 10.24 0 5.12-5.12 5.12-10.24 5.12l-51.2 15.36v10.24c0 10.24-5.12 15.36-10.24 25.6-15.36 5.12-25.6 10.24-30.72 10.24-10.24 0-20.48-5.12-25.6-10.24-10.24-5.12-15.36-15.36-15.36-25.6v-81.92h-107.52c-15.36 0-25.6 0-35.84-10.24s-15.36-20.48-15.36-35.84v-81.92h30.72v81.92l20.48 30.72v-102.4l-20.48-30.72v-128c0-5.12 5.12-10.24 10.24-15.36s10.24-5.12 15.36-5.12c5.12 0 10.24 0 20.48 5.12 5.12 5.12 10.24 10.24 10.24 15.36v112.64l20.48 35.84v-35.84l51.2-117.76c5.12-5.12 10.24-10.24 15.36-10.24s10.24 0 20.48 0c5.12 0 5.12 5.12 10.24 10.24 0 5.12 0 10.24-5.12 15.36l-46.080 107.52 20.48 35.84h122.88v-148.48c0-5.12 0-10.24 5.12-15.36 5.12-10.24 10.24-10.24 15.36-10.24s10.24 0 15.36 5.12 5.12 10.24 5.12 15.36v148.48l56.32 107.52c5.12 0 10.24 0 20.48 0 15.36 0 25.6 5.12 40.96 15.36 10.24 5.12 15.36 15.36 20.48 30.72h5.12c10.24 0 20.48 0 25.6 10.24 5.12 5.12 5.12 10.24 5.12 15.36v0zM445.44 275.2c-10.24-5.12-20.48-10.24-30.72-10.24-5.12 0-10.24 0-10.24 0l20.48 40.96 35.84-5.12c0-10.24-5.12-20.48-15.36-25.6v0z" />
<glyph unicode="&#xe64e;" d="M368.64 341.76c-10.24 5.12-15.36 5.12-25.6 5.12v5.12c0 10.24-5.12 15.36-15.36 15.36h-61.44l-61.44 46.080 61.44 51.2h61.44c10.24 0 20.48-10.24 20.48-20.48 0-5.12 5.12-5.12 5.12-5.12 5.12 0 5.12 5.12 5.12 5.12 5.12 20.48-10.24 35.84-30.72 35.84h-143.36c-20.48 0-35.84-15.36-35.84-35.84 0-5.12 5.12-5.12 5.12-5.12 5.12 0 5.12 5.12 5.12 5.12 0 10.24 10.24 20.48 20.48 20.48h56.32l-46.080-46.080c0 0 0 0 0 0s0 0 0 0 0 0 0 0 0 0 0 0v0c0 0 0 0 0 0s0 0 0 0 0 0 0 0 0 0 0 0v0 0 0l56.32-46.080h-61.44c-10.24 0-15.36-5.12-15.36-15.36v-5.12c-10.24 0-20.48 0-25.6-5.12-40.96-10.24-56.32-20.48-56.32-35.84v-250.88c0 0 0-5.12 0-5.12l20.48-66.56c0-5.12 5.12-10.24 15.36-10.24h25.6l10.24-10.24c0 0 5.12 0 5.12 0h15.36c5.12 0 5.12 5.12 5.12 5.12v10.24h143.36v-5.12c0-5.12 5.12-5.12 5.12-5.12h15.36c0 0 5.12 0 5.12 0l10.24 10.24h25.6c5.12 0 10.24 5.12 15.36 10.24l20.48 66.56c0 0 0 5.12 0 5.12v245.76c0 15.36-15.36 25.6-56.32 30.72zM256 352c10.24 0 20.48-10.24 20.48-20.48s-10.24-20.48-20.48-20.48c-10.24 0-20.48 10.24-20.48 20.48s10.24 20.48 20.48 20.48zM117.76 55.040h112.64v-15.36h-107.52l-5.12 15.36zM378.88 8.96h-245.76l-5.12 15.36h102.4c0-5.12 0-5.12 5.12-5.12l20.48-10.24c0 0 0 0 0 0s0 0 0 0v0 0l25.6 15.36h97.28v-15.36zM240.64 29.44v25.6h5.12v-30.72l-5.12 5.12zM261.12 29.44v25.6l15.36-5.12v-10.24l-15.36-10.24zM389.12 39.68h-97.28v15.36h102.4l-5.12-15.36zM240.64 285.44h-107.52c-5.12 0-5.12-5.12-5.12-5.12v-97.28c0-5.12 5.12-10.24 5.12-10.24h107.52c5.12 0 5.12 5.12 5.12 5.12v102.4c5.12 5.12 0 5.12-5.12 5.12zM261.12 280.32v-97.28c0-5.12 5.12-10.24 10.24-10.24h107.52c5.12 0 5.12 5.12 5.12 5.12v102.4c0 5.12-5.12 5.12-5.12 5.12h-107.52c-5.12 0-10.24 0-10.24-5.12zM179.2 126.72h-46.080c0 0-5.12-5.12-5.12-10.24v-30.72c0-5.12 5.12-5.12 5.12-5.12h40.96c5.12 0 5.12 5.12 5.12 5.12v30.72c5.12 5.12 0 10.24 0 10.24zM343.040 126.72c-5.12 0-10.24-5.12-10.24-10.24v-30.72c0-5.12 5.12-5.12 5.12-5.12h40.96c5.12 0 5.12 5.12 5.12 5.12v30.72c0 5.12-5.12 5.12-5.12 5.12h-35.84z" />
<glyph unicode="&#xe64f;" d="M481.28 357.12h-10.24v51.2c0 15.36-10.24 35.84-25.6 46.080 0 0-56.32 25.6-189.44 25.6s-189.44-25.6-189.44-25.6c-15.36-10.24-25.6-30.72-25.6-46.080v-51.2h-10.24c-15.36 0-30.72-15.36-30.72-30.72v-30.72c0-15.36 15.36-30.72 30.72-30.72h10.24v-209.92c0-15.36 10.24-25.6 20.48-30.72v-15.36c0-20.48 20.48-40.96 40.96-40.96s40.96 20.48 40.96 40.96v15.36h225.28v-15.36c0-20.48 20.48-40.96 40.96-40.96s40.96 20.48 40.96 40.96v15.36c10.24 5.12 20.48 15.36 20.48 30.72v209.92h10.24c15.36 0 30.72 15.36 30.72 30.72v30.72c0 15.36-15.36 30.72-30.72 30.72zM153.6 428.8c0 5.12 5.12 10.24 10.24 10.24h184.32c5.12 0 10.24-5.12 10.24-10.24v-20.48c0-5.12-5.12-10.24-10.24-10.24h-184.32c-5.12 0-10.24 5.12-10.24 10.24v20.48zM107.52 65.28c-15.36 0-25.6 10.24-25.6 25.6s10.24 25.6 25.6 25.6c15.36 0 25.6-10.24 25.6-25.6s-10.24-25.6-25.6-25.6zM404.48 65.28c-15.36 0-25.6 10.24-25.6 25.6s10.24 25.6 25.6 25.6c15.36 0 25.6-10.24 25.6-25.6s-10.24-25.6-25.6-25.6zM430.080 183.040c0-5.12-5.12-10.24-10.24-10.24h-327.68c-5.12 0-10.24 5.12-10.24 10.24v163.84c0 5.12 5.12 10.24 10.24 10.24h327.68c5.12 0 10.24-5.12 10.24-10.24v-163.84z" />
<glyph unicode="&#xe650;" d="M394.24-32l40.96 40.96-71.68 245.76-76.8-81.92zM491.52 474.88c-30.72 25.6-87.040-35.84-87.040-35.84l-102.4-102.4-245.76 71.68-40.96-40.96 204.8-107.52-66.56-71.68-87.040-5.12-40.96-35.84 97.28-35.84 35.84-97.28 40.96 40.96 5.12 81.92 71.68 71.68 81.92 76.8 102.4 102.4c-5.12 0 56.32 56.32 30.72 87.040z" />
<glyph unicode="&#xe651;" d="M450.56 224c-15.36 20.48-40.96 35.84-66.56 35.84-10.24 0-15.36 0-25.6-5.12 0 5.12 0 5.12 0 10.24 20.48 15.36 35.84 35.84 35.84 66.56 0 25.6-15.36 51.2-40.96 61.44 0 5.12 0 5.12 0 10.24 0 10.24-5.12 20.48-10.24 25.6-10.24 20.48-30.72 30.72-51.2 30.72-5.12 0-5.12 0-10.24 0 0 0 0 0-5.12 0 0 0 0 0 0 0v0c-10.24 5.12-15.36 10.24-15.36 10.24-10.24 5.12-20.48 10.24-46.080 10.24 0 0-5.12 0-5.12 0-35.84 0-61.44-20.48-81.92-46.080 0-5.12-5.12-10.24-5.12-15.36-10.24 0-20.48 5.12-30.72 0-15.36 0-30.72-10.24-35.84-25.6-15.36-25.6-5.12-66.56-5.12-66.56v0c5.12-15.36 10.24-61.44-10.24-128-5.12-15.36-5.12-30.72 0-46.080v0c0 0 0-5.12 0-5.12s0 0 0 0 0 0 0 0 0 0 0 0c5.12-10.24 20.48-30.72 51.2-25.6 0-5.12 0-10.24 0-10.24 5.12-40.96 10.24-92.16 10.24-92.16 10.24-51.2 51.2-51.2 51.2-51.2h153.6c0 0 40.96 0 51.2 51.2 0 0 0 0 0 0s0 5.12 5.12 5.12c0 0 0 0 0 0s5.12 0 5.12 0c0 0 0 0 0 0v0c5.12 0 10.24 0 10.24 0 25.6 0 46.080 15.36 66.56 35.84 15.36 20.48 25.6 51.2 25.6 81.92s-5.12 56.32-20.48 81.92zM163.84 3.84c-5.12 0-10.24 5.12-10.24 10.24 0 0-10.24 51.2-10.24 97.28s5.12 97.28 5.12 97.28c0 15.36 5.12 20.48 15.36 20.48s10.24-5.12 10.24-15.36c0 0-5.12-71.68-5.12-97.28s10.24-97.28 10.24-97.28c0-10.24-5.12-15.36-15.36-15.36zM245.76 14.080c0-5.12-5.12-10.24-15.36-10.24-5.12 0-15.36 5.12-15.36 10.24v199.68c0 5.12 5.12 10.24 15.36 10.24 5.12 0 15.36-5.12 15.36-10.24v-199.68zM307.2 14.080c0-5.12-5.12-10.24-15.36-10.24-5.12 0-15.36 5.12-15.36 10.24 0 0 10.24 71.68 10.24 97.28s0 102.4 0 102.4c0 5.12 5.12 10.24 15.36 10.24s10.24 0 10.24-10.24c0 0 5.12-51.2 5.12-97.28 0-51.2-10.24-102.4-10.24-102.4zM327.68 249.6h-194.56c0 15.36 5.12 40.96 5.12 40.96h112.64c15.36-20.48 40.96-35.84 61.44-35.84 0 0 5.12 0 5.12 0 5.12 0 5.12 0 5.12 0 5.12 0 5.12-5.12 5.12-5.12zM337.92 295.68c-5.12-5.12-10.24-5.12-15.36-5.12 0 0 0 0 0 0s-5.12 0-5.12 0c-20.48 0-35.84 5.12-40.96 20.48v0c0 0 0 0 0 0s-15.36 0-15.36 0c0 0-5.12 0-5.12 0h-143.36c-10.24-25.6-15.36-61.44-15.36-92.16 0-10.24 0-20.48 5.12-30.72s10.24-20.48 5.12-25.6c0 0 0-5.12 0-5.12-5.12-15.36-20.48-15.36-30.72-10.24 0 0-5.12 5.12-5.12 5.12s0 0 0 0 0 0 0 0c0 5.12-5.12 5.12-5.12 10.24s0 15.36 5.12 25.6c20.48 76.8 15.36 128 10.24 143.36v0c-5.12 10.24-5.12 35.84 0 46.080 5.12 5.12 5.12 10.24 15.36 10.24s15.36 0 20.48 0c0 0 0 0 5.12 0s5.12-5.12 5.12-5.12v0c0 0 0 0 0 0 0-5.12 5.12-5.12 10.24-5.12s10.24 5.12 10.24 10.24c0 0 0 0 0 0s0 0 0 0 0 5.12 0 10.24c5.12 15.36 10.24 25.6 20.48 35.84s25.6 15.36 40.96 15.36c15.36 0 30.72-5.12 46.080-10.24 0 0 5.12-5.12 5.12-5.12s5.12-5.12 5.12-5.12c0 0 0 0 0-5.12 0 0 5.12 0 5.12 0s0 0 0 0v0c0 0 0 0 0 0s0 0 5.12 0c0 0 0 0 0 0s0 0 0 0c10.24 5.12 10.24 5.12 15.36 5.12v0c15.36 0 30.72-10.24 30.72-25.6 0 0 0 0 0-5.12s0-10.24-5.12-15.36l-5.12-5.12c0 0 0 0 0-5.12 0 0 0 0 0 0h5.12c5.12 0 10.24-5.12 15.36-5.12 20.48-5.12 25.6-20.48 30.72-40.96 0 0 0 0 0 0s0 0 0-5.12c-5.12-10.24-10.24-20.48-25.6-25.6zM384 60.16c-5.12 0-10.24 0-15.36 5.12-5.12 0-5.12 0-5.12 5.12v0c0 10.24 0 25.6 0 35.84 0 20.48 0 61.44 0 102.4 0 0 0 0 0 0 0 10.24 10.24 15.36 10.24 15.36 5.12 0 5.12 0 10.24 0 30.72 0 56.32-35.84 56.32-81.92s-25.6-81.92-56.32-81.92zM71.68 157.44c0 5.12 0 5.12-5.12 10.24 5.12-5.12 5.12-10.24 5.12-10.24z" />
<glyph unicode="&#xe652;" d="M87.040 29.44h337.92c10.24 0 20.48 5.12 20.48 15.36v168.96c0 10.24-10.24 15.36-20.48 15.36h-256v46.080c0 0 0 40.96-35.84 40.96-20.48 5.12-30.72-15.36-30.72-40.96v-46.080h-15.36c-10.24 0-20.48-5.12-20.48-15.36v-168.96c0-5.12 10.24-15.36 20.48-15.36zM179.2 367.36c0-22.622-18.339-40.96-40.96-40.96s-40.96 18.339-40.96 40.96c0 22.621 18.338 40.96 40.96 40.96s40.96-18.339 40.96-40.96zM465.92 203.52v0-184.32c0-10.24-10.24-15.36-20.48-15.36h-384c-10.24 5.12-20.48 10.24-20.48 20.48v204.8h-40.96v-215.040c0-25.6 20.48-46.080 51.2-46.080h409.6c25.6 0 51.2 20.48 51.2 46.080v215.040h-46.080v-25.6zM332.8 311.040c0 0 5.12 0 0 0 5.12 0 10.24 0 10.24 5.12 15.36 25.6 5.12 56.32-20.48 66.56-15.36 10.24-30.72 10.24-40.96 10.24-15.36-5.12-25.6-15.36-30.72-25.6 0-5.12-5.12-15.36-5.12-20.48s5.12-5.12 10.24-5.12c5.12 0 5.12 5.12 5.12 10.24s0 10.24 5.12 15.36c5.12 0 10.24 5.12 15.36 10.24 10.24 0 25.6 0 35.84-5.12 20.48-10.24 25.6-30.72 15.36-51.2-5.12-5.12-5.12-10.24 0-10.24zM215.040 382.72c5.12 0 5.12 5.12 5.12 10.24 0 10.24 0 25.6 5.12 30.72s15.36 10.24 25.6 10.24c10.24 0 20.48-10.24 30.72-15.36 0 0 5.12 0 5.12 0s5.12 5.12 5.12 5.12c5.12 15.36 15.36 30.72 30.72 35.84 10.24 5.12 25.6 5.12 35.84 0 30.72-15.36 20.48-46.080 15.36-61.44 0 0 0 0 0-5.12 0 0 0-5.12 0-5.12s5.12 0 5.12 0c20.48 0 35.84-10.24 35.84-30.72 0-15.36-5.12-20.48-10.24-25.6-5.12 0-5.12-5.12 0-10.24 0 0 5.12-5.12 5.12-5.12s5.12 0 5.12 0c10.24 5.12 20.48 15.36 20.48 35.84 0 25.6-15.36 40.96-40.96 46.080 5.12 10.24 5.12 15.36 5.12 25.6 0 0 0 0 0 0 10.24 5.12 20.48 20.48 40.96 15.36 10.24 0 15.36-5.12 20.48-15.36 0 0 0-5.12 0-15.36 0 0 0-5.12 0-5.12s5.12-5.12 5.12-5.12v0c20.48 0 30.72-10.24 30.72-25.6 0-10.24-5.12-20.48-10.24-25.6-5.12 0-10.24-5.12-20.48-5.12-5.12 0-10.24 0-15.36 5.12-5.12 0-10.24 0-10.24-5.12s0-10.24 5.12-10.24c5.12 0 15.36-5.12 20.48-5.12 0 0 0 0 0 0 10.24 0 20.48 5.12 30.72 10.24 10.24 10.24 15.36 25.6 15.36 40.96 0 20.48-15.36 35.84-35.84 40.96 0 5.12 0 15.36-5.12 20.48-10.24 10.24-20.48 15.36-35.84 15.36-20.48 5.12-35.84-5.12-46.080-10.24-5.12 10.24-10.24 20.48-25.6 30.72-15.36 5.12-30.72 5.12-46.080 0s-30.72-20.48-35.84-40.96c-10.24 5.12-20.48 15.36-30.72 15.36-15.36 0-25.6-5.12-35.84-15.36s-15.36-25.6-10.24-40.96c0-5.12 5.12-10.24 10.24-10.24z" />
<glyph unicode="&#xe653;" d="M512 111.36c0-10.24-5.12-15.36-15.36-15.36h-481.28c-10.24 0-15.36 5.12-15.36 15.36 0 5.12 5.12 10.24 15.36 10.24h20.48c5.12 112.64 97.28 199.68 204.8 204.8 0 0 0 0 0 0v10.24c0 10.24 5.12 15.36 15.36 15.36s15.36-5.12 15.36-15.36v-10.24c0 0 0 0 0 0 112.64-5.12 199.68-97.28 204.8-204.8h20.48c10.24 0 15.36-5.12 15.36-10.24zM71.68 131.84h373.76c-10.24 97.28-92.16 174.080-189.44 174.080s-179.2-76.8-184.32-174.080zM424.96 162.56c-5.12 25.6-20.48 51.2-40.96 71.68-5.12 5.12-10.24 5.12-15.36 0-10.24 0-10.24-10.24-5.12-15.36 20.48-15.36 30.72-35.84 35.84-61.44 0-5.12 5.12-10.24 10.24-10.24 0 0 0 0 5.12 0 5.12 5.12 10.24 10.24 10.24 15.36z" />
<glyph unicode="&#xe654;" d="M465.92 116.48c0-25.6-20.48-46.080-46.080-46.080s-51.2 20.48-51.2 46.080 20.48 46.080 46.080 46.080 51.2-20.48 51.2-46.080v0zM512 60.16c-5.12 10.24-10.24 15.36-20.48 10.24l-117.76-30.72-15.36 40.96c5.12 5.12 5.12 10.24 5.12 20.48 0 20.48-15.36 35.84-35.84 35.84h-184.32c-5.12-5.12-15.36-10.24-20.48-15.36h-97.28c-15.36 0-25.6-10.24-25.6-25.6 0-10.24 10.24-25.6 25.6-25.6h97.28c5.12-5.12 15.36-10.24 20.48-10.24h184.32l25.6-51.2c0 0 5.12-5.12 15.36-5.12h5.12l128 35.84c5.12 0 10.24 10.24 10.24 20.48v0zM148.48 142.080c0 0 5.12 0 5.12 0 20.48 0 40.96 15.36 40.96 35.84l10.24 61.44 81.92-76.8c5.12-5.12 5.12-5.12 10.24-5.12s10.24 0 15.36 5.12c5.12 5.12 5.12 20.48 0 25.6l-97.28 92.16v5.12c5.12 25.6-10.24 46.080-35.84 51.2s-46.080-10.24-51.2-35.84l-15.36-107.52c0-25.6 15.36-46.080 35.84-51.2v0zM250.88 392.96c0-30.72-25.6-51.2-51.2-51.2s-51.2 25.6-51.2 51.2c0 30.72 25.6 51.2 51.2 51.2s51.2-25.6 51.2-51.2v0z" />
<glyph unicode="&#xe655;" d="M512 224c0 143.36-112.64 256-256 256s-256-112.64-256-256 112.64-256 256-256c15.36 0 25.6 10.24 25.6 25.6s-10.24 30.72-25.6 30.72c-112.64 0-199.68 87.040-199.68 199.68s87.040 199.68 199.68 199.68c112.64 0 199.68-92.16 199.68-199.68 0-30.72-5.12-61.44-20.48-87.040 0 0 0 0 0 0-5.12-10.24-15.36-20.48-25.6-20.48-20.48 0-30.72 15.36-30.72 30.72v174.080c0 15.36-10.24 25.6-25.6 25.6v0c-15.36 0-25.6-10.24-25.6-25.6-30.72 25.6-56.32 35.84-87.040 35.84-71.68 0-128-61.44-128-133.12s61.44-133.12 133.12-133.12c30.72 0 61.44 10.24 81.92 30.72 10.24-35.84 40.96-56.32 81.92-56.32 30.72 0 56.32 15.36 71.68 35.84 0 0 5.12 5.12 5.12 5.12 15.36 35.84 25.6 76.8 25.6 117.76zM240.64 147.2c-40.96 0-76.8 35.84-76.8 76.8s35.84 76.8 76.8 76.8 76.8-35.84 76.8-76.8-30.72-76.8-76.8-76.8z" />
<glyph unicode="&#xe656;" d="M117.76 183.040l97.28-97.28 179.2 179.2-97.28 92.16-179.2-174.080zM501.76 316.16l-40.96 40.96c-5.12-5.12-15.36-10.24-25.6-10.24-30.72 0-56.32 25.6-56.32 56.32 0 10.24 0 20.48 5.12 25.6l-35.84 40.96c-10.24 15.36-30.72 15.36-40.96 0l-296.96-296.96c-10.24-10.24-10.24-30.72 0-40.96l40.96-40.96c10.24 5.12 15.36 5.12 25.6 5.12 30.72 0 56.32-25.6 56.32-56.32 0-10.24 0-20.48-5.12-25.6l40.96-40.96c10.24-10.24 30.72-10.24 40.96 0l291.84 302.080c15.36 10.24 15.36 30.72 0 40.96zM215.040 39.68l-143.36 143.36 220.16 220.16 143.36-143.36-220.16-220.16z" />
<glyph unicode="&#xe657;" d="M256 346.88c-5.12-10.24-15.36-15.36-25.6-10.24s-10.24 15.36-10.24 25.6c5.12 10.24 15.36 15.36 25.6 10.24s15.36-15.36 10.24-25.6zM343.040 341.76c0-8.483-6.877-15.36-15.36-15.36s-15.36 6.877-15.36 15.36c0 8.483 6.877 15.36 15.36 15.36s15.36-6.877 15.36-15.36zM353.28 382.72c0-8.483-6.877-15.36-15.36-15.36s-15.36 6.877-15.36 15.36c0 8.483 6.877 15.36 15.36 15.36s15.36-6.877 15.36-15.36zM256 408.32c0-8.483-6.877-15.36-15.36-15.36s-15.36 6.877-15.36 15.36c0 8.483 6.877 15.36 15.36 15.36s15.36-6.877 15.36-15.36zM317.44 295.68c-5.12-5.12-10.24-10.24-15.36-5.12-10.24 0-10.24 10.24-10.24 15.36 5.12 5.12 10.24 10.24 20.48 5.12 5.12 0 10.24-10.24 5.12-15.36zM296.96 331.52c0-8.483-6.877-15.36-15.36-15.36s-15.36 6.877-15.36 15.36c0 8.483 6.877 15.36 15.36 15.36s15.36-6.877 15.36-15.36zM312.32 377.6c0-11.311-9.169-20.48-20.48-20.48s-20.48 9.169-20.48 20.48c0 11.311 9.169 20.48 20.48 20.48s20.48-9.169 20.48-20.48zM245.76 188.16c-20.48 0-40.96 0-56.32 0-61.44 0-112.64 5.12-143.36 10.24l40.96-81.92c0 0 10.24-15.36 25.6-25.6 15.36-5.12 25.6-10.24 35.84-10.24l-15.36-30.72c-5.12-10.24 0-20.48 10.24-20.48 0 0 5.12 0 5.12 0 5.12 0 15.36 5.12 15.36 10.24l20.48 40.96h133.12l20.48-40.96c5.12-5.12 10.24-10.24 15.36-10.24 0 0 5.12 0 5.12 0 10.24 5.12 10.24 15.36 10.24 20.48l-10.24 25.6c0 0 15.36 0 25.6 5.12 15.36 10.24 25.6 25.6 25.6 25.6l51.2 112.64c-40.96-10.24-122.88-25.6-215.040-30.72zM450.56 311.040c0-19.794-16.046-35.84-35.84-35.84s-35.84 16.046-35.84 35.84c0 19.794 16.046 35.84 35.84 35.84s35.84-16.046 35.84-35.84zM10.24 224c0 0 10.24 0 25.6-5.12v0c40.96-5.12 117.76-10.24 209.92-5.12 122.88 5.12 215.040 35.84 250.88 46.080 5.12 0 5.12 0 5.12 5.12 10.24 0 10.24 10.24 10.24 15.36-5.12 5.12-15.36 10.24-20.48 10.24 0 0-35.84-15.36-92.16-30.72-10.24 10.24-25.6 15.36-40.96 5.12l-35.84-20.48c-10.24 0-20.48 0-30.72-5.12l-76.8 71.68c0 0 0 0 0 0s0 0 0 0 0 0 0 0 0 0 0 0c-10.24 5.12-10.24 5.12-15.36 5.12h-81.92c-10.24 0-20.48-10.24-20.48-20.48s10.24-20.48 20.48-20.48h46.080l-20.48-35.84c-76.8 5.12-122.88 15.36-122.88 15.36-10.24 0-20.48-5.12-20.48-10.24 0-10.24 5.12-15.36 10.24-20.48zM204.8 254.72l15.36-20.48c-10.24 0-20.48 0-25.6 0l10.24 20.48z" />
</font>
</defs>
</svg>
